G04*
G04 #@! TF.GenerationSoftware,Altium Limited,Altium Designer,22.7.1 (60)*
G04*
G04 Layer_Color=16711935*
%FSLAX44Y44*%
%MOMM*%
G71*
G04*
G04 #@! TF.SameCoordinates,A4F2FA5D-D4EF-4288-9AD8-153C25E8CDF2*
G04*
G04*
G04 #@! TF.FilePolarity,Positive*
G04*
G01*
G75*
%ADD12C,0.2000*%
G36*
X333371Y247910D02*
X333454Y247901D01*
X333556Y247892D01*
X333658Y247883D01*
X333778Y247855D01*
X334028Y247799D01*
X334305Y247716D01*
X334444Y247661D01*
X334573Y247596D01*
X334702Y247513D01*
X334832Y247430D01*
X334841Y247421D01*
X334860Y247411D01*
X334897Y247383D01*
X334943Y247337D01*
X334989Y247291D01*
X335054Y247226D01*
X335118Y247152D01*
X335192Y247078D01*
X335266Y246986D01*
X335340Y246875D01*
X335424Y246764D01*
X335498Y246644D01*
X335562Y246505D01*
X335636Y246367D01*
X335692Y246218D01*
X335747Y246052D01*
X334915Y245858D01*
Y245867D01*
X334906Y245886D01*
X334887Y245923D01*
X334869Y245969D01*
X334850Y246024D01*
X334823Y246098D01*
X334749Y246246D01*
X334656Y246413D01*
X334545Y246579D01*
X334407Y246736D01*
X334259Y246875D01*
X334240Y246894D01*
X334185Y246930D01*
X334092Y246977D01*
X333972Y247041D01*
X333815Y247097D01*
X333639Y247152D01*
X333427Y247189D01*
X333195Y247199D01*
X333121D01*
X333075Y247189D01*
X333010D01*
X332937Y247180D01*
X332761Y247152D01*
X332567Y247115D01*
X332363Y247051D01*
X332151Y246958D01*
X331956Y246838D01*
X331947D01*
X331938Y246819D01*
X331873Y246773D01*
X331790Y246699D01*
X331688Y246588D01*
X331568Y246450D01*
X331457Y246292D01*
X331356Y246098D01*
X331263Y245886D01*
Y245876D01*
X331254Y245858D01*
X331245Y245830D01*
X331235Y245784D01*
X331217Y245728D01*
X331198Y245664D01*
X331171Y245507D01*
X331134Y245322D01*
X331097Y245118D01*
X331078Y244896D01*
X331069Y244656D01*
Y244647D01*
Y244619D01*
Y244573D01*
Y244517D01*
X331078Y244453D01*
Y244369D01*
X331087Y244277D01*
X331097Y244175D01*
X331124Y243953D01*
X331171Y243713D01*
X331226Y243473D01*
X331300Y243232D01*
Y243223D01*
X331309Y243204D01*
X331328Y243177D01*
X331346Y243130D01*
X331402Y243020D01*
X331485Y242890D01*
X331587Y242742D01*
X331716Y242585D01*
X331864Y242446D01*
X332040Y242317D01*
X332049D01*
X332067Y242308D01*
X332095Y242289D01*
X332132Y242271D01*
X332178Y242252D01*
X332234Y242224D01*
X332363Y242169D01*
X332530Y242113D01*
X332715Y242067D01*
X332918Y242030D01*
X333131Y242021D01*
X333195D01*
X333251Y242030D01*
X333316D01*
X333380Y242040D01*
X333547Y242076D01*
X333741Y242123D01*
X333935Y242197D01*
X334138Y242298D01*
X334240Y242354D01*
X334333Y242428D01*
X334342Y242437D01*
X334351Y242446D01*
X334379Y242474D01*
X334416Y242502D01*
X334453Y242548D01*
X334499Y242603D01*
X334555Y242659D01*
X334601Y242733D01*
X334656Y242816D01*
X334721Y242909D01*
X334776Y243001D01*
X334832Y243112D01*
X334878Y243232D01*
X334924Y243362D01*
X334971Y243500D01*
X335008Y243648D01*
X335858Y243436D01*
Y243426D01*
X335849Y243389D01*
X335830Y243334D01*
X335803Y243260D01*
X335775Y243177D01*
X335738Y243075D01*
X335692Y242964D01*
X335636Y242844D01*
X335507Y242585D01*
X335340Y242326D01*
X335239Y242197D01*
X335137Y242067D01*
X335026Y241956D01*
X334897Y241845D01*
X334887Y241836D01*
X334869Y241818D01*
X334823Y241799D01*
X334776Y241762D01*
X334702Y241716D01*
X334628Y241670D01*
X334527Y241623D01*
X334425Y241577D01*
X334305Y241522D01*
X334175Y241476D01*
X334037Y241429D01*
X333889Y241383D01*
X333732Y241346D01*
X333565Y241328D01*
X333390Y241309D01*
X333205Y241300D01*
X333103D01*
X333029Y241309D01*
X332946D01*
X332844Y241318D01*
X332733Y241337D01*
X332604Y241355D01*
X332336Y241402D01*
X332058Y241476D01*
X331781Y241577D01*
X331651Y241642D01*
X331522Y241716D01*
X331513Y241725D01*
X331494Y241734D01*
X331457Y241762D01*
X331420Y241799D01*
X331365Y241836D01*
X331300Y241892D01*
X331226Y241956D01*
X331152Y242030D01*
X331078Y242113D01*
X330995Y242197D01*
X330829Y242409D01*
X330671Y242659D01*
X330533Y242936D01*
Y242946D01*
X330514Y242973D01*
X330505Y243020D01*
X330477Y243075D01*
X330459Y243149D01*
X330431Y243241D01*
X330394Y243343D01*
X330366Y243454D01*
X330339Y243574D01*
X330302Y243713D01*
X330255Y244000D01*
X330218Y244323D01*
X330200Y244656D01*
Y244665D01*
Y244702D01*
Y244758D01*
X330209Y244822D01*
Y244915D01*
X330218Y245007D01*
X330228Y245128D01*
X330246Y245248D01*
X330292Y245516D01*
X330357Y245812D01*
X330449Y246108D01*
X330579Y246394D01*
X330588Y246403D01*
X330597Y246431D01*
X330616Y246468D01*
X330653Y246514D01*
X330690Y246579D01*
X330736Y246653D01*
X330856Y246819D01*
X331013Y247004D01*
X331198Y247189D01*
X331411Y247374D01*
X331661Y247531D01*
X331670Y247541D01*
X331698Y247550D01*
X331735Y247568D01*
X331781Y247596D01*
X331855Y247624D01*
X331929Y247652D01*
X332021Y247689D01*
X332123Y247726D01*
X332234Y247763D01*
X332354Y247799D01*
X332613Y247855D01*
X332909Y247901D01*
X333214Y247920D01*
X333306D01*
X333371Y247910D01*
D02*
G37*
G36*
X340518Y246977D02*
X337957D01*
X337615Y245248D01*
X337624Y245257D01*
X337643Y245266D01*
X337670Y245285D01*
X337716Y245312D01*
X337772Y245340D01*
X337837Y245377D01*
X337985Y245451D01*
X338170Y245525D01*
X338373Y245590D01*
X338595Y245636D01*
X338706Y245655D01*
X338909D01*
X338965Y245645D01*
X339039Y245636D01*
X339122Y245627D01*
X339214Y245608D01*
X339316Y245581D01*
X339538Y245516D01*
X339658Y245470D01*
X339778Y245405D01*
X339898Y245340D01*
X340019Y245266D01*
X340130Y245174D01*
X340241Y245072D01*
X340250Y245063D01*
X340268Y245044D01*
X340296Y245017D01*
X340333Y244970D01*
X340379Y244906D01*
X340425Y244841D01*
X340481Y244758D01*
X340536Y244665D01*
X340583Y244564D01*
X340638Y244453D01*
X340684Y244323D01*
X340731Y244194D01*
X340768Y244055D01*
X340795Y243898D01*
X340814Y243741D01*
X340823Y243574D01*
Y243565D01*
Y243537D01*
Y243491D01*
X340814Y243426D01*
X340805Y243352D01*
X340795Y243269D01*
X340777Y243167D01*
X340758Y243066D01*
X340703Y242825D01*
X340610Y242576D01*
X340555Y242446D01*
X340481Y242326D01*
X340407Y242197D01*
X340315Y242076D01*
X340305Y242067D01*
X340287Y242040D01*
X340250Y242003D01*
X340204Y241956D01*
X340139Y241901D01*
X340065Y241827D01*
X339972Y241762D01*
X339871Y241688D01*
X339760Y241614D01*
X339630Y241549D01*
X339492Y241485D01*
X339344Y241420D01*
X339187Y241374D01*
X339011Y241337D01*
X338826Y241309D01*
X338632Y241300D01*
X338549D01*
X338484Y241309D01*
X338410Y241318D01*
X338327Y241328D01*
X338225Y241337D01*
X338123Y241365D01*
X337892Y241420D01*
X337661Y241503D01*
X337541Y241559D01*
X337421Y241623D01*
X337310Y241697D01*
X337199Y241781D01*
X337189Y241790D01*
X337171Y241799D01*
X337153Y241836D01*
X337116Y241873D01*
X337069Y241919D01*
X337023Y241975D01*
X336968Y242049D01*
X336921Y242132D01*
X336866Y242215D01*
X336810Y242317D01*
X336709Y242539D01*
X336626Y242798D01*
X336598Y242936D01*
X336579Y243084D01*
X337402Y243149D01*
Y243140D01*
Y243121D01*
X337411Y243093D01*
X337421Y243047D01*
X337448Y242946D01*
X337485Y242807D01*
X337541Y242668D01*
X337615Y242511D01*
X337707Y242372D01*
X337818Y242243D01*
X337837Y242234D01*
X337874Y242197D01*
X337948Y242150D01*
X338049Y242095D01*
X338160Y242040D01*
X338299Y241993D01*
X338456Y241956D01*
X338632Y241947D01*
X338687D01*
X338724Y241956D01*
X338835Y241966D01*
X338965Y242003D01*
X339122Y242049D01*
X339279Y242123D01*
X339445Y242234D01*
X339519Y242298D01*
X339593Y242372D01*
X339603Y242382D01*
X339612Y242391D01*
X339630Y242419D01*
X339658Y242446D01*
X339723Y242548D01*
X339797Y242677D01*
X339861Y242835D01*
X339926Y243029D01*
X339972Y243260D01*
X339991Y243380D01*
Y243510D01*
Y243519D01*
Y243537D01*
Y243574D01*
X339982Y243620D01*
Y243676D01*
X339972Y243741D01*
X339945Y243889D01*
X339898Y244064D01*
X339834Y244240D01*
X339741Y244406D01*
X339612Y244564D01*
Y244573D01*
X339593Y244582D01*
X339547Y244628D01*
X339464Y244693D01*
X339353Y244767D01*
X339205Y244832D01*
X339039Y244896D01*
X338844Y244943D01*
X338734Y244961D01*
X338558D01*
X338484Y244952D01*
X338391Y244943D01*
X338280Y244915D01*
X338170Y244887D01*
X338049Y244841D01*
X337929Y244785D01*
X337920Y244776D01*
X337883Y244758D01*
X337827Y244711D01*
X337753Y244665D01*
X337680Y244601D01*
X337606Y244517D01*
X337522Y244434D01*
X337458Y244332D01*
X336718Y244434D01*
X337337Y247726D01*
X340518D01*
Y246977D01*
D02*
G37*
G36*
X121809Y290492D02*
X116807D01*
X116817Y290483D01*
X116854Y290437D01*
X116909Y290381D01*
X116974Y290289D01*
X117057Y290187D01*
X117149Y290058D01*
X117251Y289910D01*
X117353Y289743D01*
Y289734D01*
X117362Y289725D01*
X117399Y289669D01*
X117445Y289577D01*
X117501Y289466D01*
X117565Y289336D01*
X117630Y289198D01*
X117695Y289059D01*
X117750Y288920D01*
X116992D01*
Y288930D01*
X116974Y288948D01*
X116964Y288985D01*
X116937Y289031D01*
X116909Y289087D01*
X116872Y289151D01*
X116779Y289309D01*
X116678Y289494D01*
X116548Y289678D01*
X116400Y289873D01*
X116243Y290067D01*
X116234Y290076D01*
X116225Y290085D01*
X116197Y290113D01*
X116169Y290150D01*
X116077Y290233D01*
X115966Y290344D01*
X115836Y290455D01*
X115688Y290575D01*
X115541Y290677D01*
X115383Y290769D01*
Y291278D01*
X121809D01*
Y290492D01*
D02*
G37*
G36*
X119831Y287589D02*
X119886Y287570D01*
X119960Y287543D01*
X120043Y287515D01*
X120145Y287478D01*
X120256Y287432D01*
X120376Y287376D01*
X120635Y287247D01*
X120894Y287080D01*
X121023Y286979D01*
X121153Y286877D01*
X121264Y286766D01*
X121375Y286637D01*
X121384Y286627D01*
X121402Y286609D01*
X121421Y286563D01*
X121458Y286516D01*
X121504Y286443D01*
X121550Y286369D01*
X121596Y286267D01*
X121643Y286165D01*
X121698Y286045D01*
X121744Y285916D01*
X121791Y285777D01*
X121837Y285629D01*
X121874Y285472D01*
X121892Y285305D01*
X121911Y285130D01*
X121920Y284945D01*
Y284843D01*
X121911Y284769D01*
Y284686D01*
X121902Y284584D01*
X121883Y284473D01*
X121865Y284344D01*
X121818Y284076D01*
X121744Y283798D01*
X121643Y283521D01*
X121578Y283391D01*
X121504Y283262D01*
X121495Y283253D01*
X121486Y283234D01*
X121458Y283197D01*
X121421Y283160D01*
X121384Y283105D01*
X121328Y283040D01*
X121264Y282966D01*
X121190Y282892D01*
X121107Y282818D01*
X121023Y282735D01*
X120811Y282569D01*
X120561Y282411D01*
X120284Y282273D01*
X120274D01*
X120247Y282254D01*
X120200Y282245D01*
X120145Y282217D01*
X120071Y282199D01*
X119979Y282171D01*
X119877Y282134D01*
X119766Y282106D01*
X119646Y282079D01*
X119507Y282042D01*
X119220Y281995D01*
X118897Y281958D01*
X118564Y281940D01*
X118555D01*
X118518D01*
X118462D01*
X118398Y281949D01*
X118305D01*
X118213Y281958D01*
X118092Y281968D01*
X117972Y281986D01*
X117704Y282032D01*
X117408Y282097D01*
X117112Y282190D01*
X116826Y282319D01*
X116817Y282328D01*
X116789Y282337D01*
X116752Y282356D01*
X116706Y282393D01*
X116641Y282430D01*
X116567Y282476D01*
X116400Y282596D01*
X116215Y282754D01*
X116031Y282938D01*
X115846Y283151D01*
X115688Y283401D01*
X115679Y283410D01*
X115670Y283438D01*
X115652Y283475D01*
X115624Y283521D01*
X115596Y283595D01*
X115568Y283669D01*
X115531Y283761D01*
X115494Y283863D01*
X115457Y283974D01*
X115420Y284094D01*
X115365Y284353D01*
X115319Y284649D01*
X115300Y284954D01*
Y285046D01*
X115309Y285111D01*
X115319Y285194D01*
X115328Y285296D01*
X115337Y285398D01*
X115365Y285518D01*
X115420Y285768D01*
X115504Y286045D01*
X115559Y286184D01*
X115624Y286313D01*
X115707Y286443D01*
X115790Y286572D01*
X115800Y286581D01*
X115809Y286600D01*
X115836Y286637D01*
X115883Y286683D01*
X115929Y286729D01*
X115994Y286794D01*
X116068Y286859D01*
X116142Y286933D01*
X116234Y287006D01*
X116345Y287080D01*
X116456Y287164D01*
X116576Y287238D01*
X116715Y287302D01*
X116854Y287376D01*
X117001Y287432D01*
X117168Y287487D01*
X117362Y286655D01*
X117353D01*
X117334Y286646D01*
X117297Y286627D01*
X117251Y286609D01*
X117196Y286590D01*
X117122Y286563D01*
X116974Y286489D01*
X116807Y286396D01*
X116641Y286285D01*
X116484Y286147D01*
X116345Y285999D01*
X116327Y285980D01*
X116290Y285925D01*
X116243Y285832D01*
X116179Y285712D01*
X116123Y285555D01*
X116068Y285379D01*
X116031Y285167D01*
X116021Y284935D01*
Y284862D01*
X116031Y284815D01*
Y284750D01*
X116040Y284677D01*
X116068Y284501D01*
X116105Y284307D01*
X116169Y284103D01*
X116262Y283891D01*
X116382Y283696D01*
Y283687D01*
X116400Y283678D01*
X116447Y283613D01*
X116521Y283530D01*
X116632Y283428D01*
X116770Y283308D01*
X116927Y283197D01*
X117122Y283096D01*
X117334Y283003D01*
X117344D01*
X117362Y282994D01*
X117390Y282985D01*
X117436Y282975D01*
X117491Y282957D01*
X117556Y282938D01*
X117713Y282911D01*
X117898Y282874D01*
X118102Y282837D01*
X118323Y282818D01*
X118564Y282809D01*
X118573D01*
X118601D01*
X118647D01*
X118703D01*
X118767Y282818D01*
X118850D01*
X118943Y282827D01*
X119045Y282837D01*
X119267Y282864D01*
X119507Y282911D01*
X119747Y282966D01*
X119988Y283040D01*
X119997D01*
X120015Y283049D01*
X120043Y283068D01*
X120089Y283086D01*
X120200Y283142D01*
X120330Y283225D01*
X120478Y283327D01*
X120635Y283456D01*
X120774Y283604D01*
X120903Y283780D01*
Y283789D01*
X120912Y283808D01*
X120931Y283835D01*
X120949Y283872D01*
X120968Y283918D01*
X120996Y283974D01*
X121051Y284103D01*
X121107Y284270D01*
X121153Y284455D01*
X121190Y284658D01*
X121199Y284871D01*
Y284935D01*
X121190Y284991D01*
Y285056D01*
X121180Y285120D01*
X121143Y285287D01*
X121097Y285481D01*
X121023Y285675D01*
X120922Y285879D01*
X120866Y285980D01*
X120792Y286073D01*
X120783Y286082D01*
X120774Y286091D01*
X120746Y286119D01*
X120718Y286156D01*
X120672Y286193D01*
X120616Y286239D01*
X120561Y286295D01*
X120487Y286341D01*
X120404Y286396D01*
X120311Y286461D01*
X120219Y286516D01*
X120108Y286572D01*
X119988Y286618D01*
X119858Y286664D01*
X119720Y286711D01*
X119572Y286748D01*
X119784Y287598D01*
X119794D01*
X119831Y287589D01*
D02*
G37*
G36*
X196262Y292508D02*
X196336Y292498D01*
X196419Y292480D01*
X196511Y292461D01*
X196613Y292443D01*
X196835Y292369D01*
X196955Y292313D01*
X197066Y292258D01*
X197186Y292184D01*
X197306Y292101D01*
X197427Y292008D01*
X197538Y291897D01*
X197547Y291888D01*
X197565Y291870D01*
X197593Y291833D01*
X197630Y291786D01*
X197676Y291731D01*
X197722Y291657D01*
X197778Y291574D01*
X197824Y291472D01*
X197880Y291370D01*
X197935Y291250D01*
X197981Y291130D01*
X198028Y290991D01*
X198065Y290843D01*
X198092Y290686D01*
X198111Y290529D01*
X198120Y290353D01*
Y290270D01*
X198111Y290215D01*
X198102Y290141D01*
X198092Y290058D01*
X198074Y289965D01*
X198055Y289863D01*
X198000Y289641D01*
X197907Y289410D01*
X197852Y289290D01*
X197787Y289179D01*
X197704Y289068D01*
X197621Y288957D01*
X197612Y288948D01*
X197593Y288930D01*
X197565Y288902D01*
X197528Y288874D01*
X197482Y288828D01*
X197417Y288782D01*
X197353Y288726D01*
X197269Y288671D01*
X197177Y288615D01*
X197085Y288560D01*
X196863Y288458D01*
X196604Y288375D01*
X196465Y288347D01*
X196317Y288329D01*
X196215Y289114D01*
X196225D01*
X196243Y289124D01*
X196280Y289133D01*
X196326Y289142D01*
X196382Y289151D01*
X196447Y289170D01*
X196585Y289216D01*
X196752Y289281D01*
X196909Y289364D01*
X197057Y289457D01*
X197186Y289568D01*
X197195Y289586D01*
X197232Y289623D01*
X197279Y289697D01*
X197325Y289789D01*
X197380Y289900D01*
X197427Y290039D01*
X197464Y290196D01*
X197473Y290363D01*
Y290418D01*
X197464Y290455D01*
X197454Y290557D01*
X197427Y290686D01*
X197380Y290834D01*
X197316Y290991D01*
X197223Y291148D01*
X197094Y291296D01*
X197075Y291315D01*
X197020Y291361D01*
X196937Y291417D01*
X196826Y291491D01*
X196687Y291565D01*
X196530Y291620D01*
X196345Y291666D01*
X196141Y291685D01*
X196132D01*
X196114D01*
X196086D01*
X196049Y291675D01*
X195947Y291666D01*
X195827Y291639D01*
X195679Y291602D01*
X195531Y291537D01*
X195383Y291444D01*
X195245Y291324D01*
X195226Y291306D01*
X195189Y291259D01*
X195134Y291185D01*
X195069Y291084D01*
X195004Y290954D01*
X194949Y290797D01*
X194912Y290621D01*
X194893Y290427D01*
Y290344D01*
X194903Y290279D01*
X194912Y290196D01*
X194930Y290104D01*
X194949Y289993D01*
X194977Y289873D01*
X194283Y289965D01*
Y290011D01*
X194292Y290048D01*
Y290168D01*
X194274Y290270D01*
X194255Y290390D01*
X194228Y290529D01*
X194181Y290686D01*
X194117Y290834D01*
X194034Y290991D01*
Y291001D01*
X194024Y291010D01*
X193987Y291056D01*
X193923Y291121D01*
X193839Y291195D01*
X193719Y291269D01*
X193580Y291333D01*
X193423Y291380D01*
X193331Y291398D01*
X193229D01*
X193220D01*
X193211D01*
X193155D01*
X193081Y291380D01*
X192980Y291361D01*
X192869Y291324D01*
X192748Y291278D01*
X192628Y291204D01*
X192517Y291102D01*
X192508Y291093D01*
X192471Y291047D01*
X192425Y290982D01*
X192369Y290899D01*
X192323Y290788D01*
X192277Y290658D01*
X192240Y290511D01*
X192231Y290344D01*
Y290270D01*
X192249Y290187D01*
X192268Y290076D01*
X192305Y289956D01*
X192351Y289836D01*
X192425Y289706D01*
X192517Y289586D01*
X192526Y289577D01*
X192573Y289540D01*
X192637Y289484D01*
X192730Y289420D01*
X192850Y289355D01*
X192998Y289290D01*
X193174Y289235D01*
X193377Y289198D01*
X193238Y288412D01*
X193229D01*
X193201Y288421D01*
X193164Y288430D01*
X193109Y288440D01*
X193044Y288458D01*
X192970Y288486D01*
X192795Y288541D01*
X192591Y288634D01*
X192388Y288745D01*
X192194Y288883D01*
X192018Y289059D01*
X192009Y289068D01*
X191999Y289087D01*
X191981Y289114D01*
X191953Y289151D01*
X191916Y289198D01*
X191879Y289262D01*
X191842Y289327D01*
X191796Y289410D01*
X191722Y289595D01*
X191648Y289808D01*
X191602Y290058D01*
X191583Y290187D01*
Y290418D01*
X191593Y290520D01*
X191611Y290640D01*
X191639Y290788D01*
X191685Y290954D01*
X191741Y291121D01*
X191815Y291287D01*
Y291296D01*
X191824Y291306D01*
X191852Y291361D01*
X191907Y291444D01*
X191972Y291537D01*
X192064Y291648D01*
X192166Y291759D01*
X192286Y291870D01*
X192425Y291962D01*
X192443Y291971D01*
X192489Y291999D01*
X192573Y292036D01*
X192674Y292082D01*
X192795Y292129D01*
X192933Y292166D01*
X193090Y292193D01*
X193248Y292202D01*
X193266D01*
X193322D01*
X193396Y292193D01*
X193497Y292175D01*
X193617Y292147D01*
X193747Y292101D01*
X193876Y292045D01*
X194006Y291971D01*
X194024Y291962D01*
X194061Y291934D01*
X194126Y291879D01*
X194200Y291805D01*
X194283Y291712D01*
X194376Y291602D01*
X194459Y291472D01*
X194542Y291315D01*
Y291324D01*
X194551Y291343D01*
X194561Y291370D01*
X194570Y291407D01*
X194607Y291509D01*
X194662Y291639D01*
X194736Y291786D01*
X194829Y291934D01*
X194949Y292073D01*
X195088Y292202D01*
X195106Y292212D01*
X195161Y292249D01*
X195254Y292304D01*
X195374Y292360D01*
X195522Y292415D01*
X195698Y292471D01*
X195901Y292508D01*
X196123Y292517D01*
X196132D01*
X196160D01*
X196206D01*
X196262Y292508D01*
D02*
G37*
G36*
X196031Y287589D02*
X196086Y287570D01*
X196160Y287543D01*
X196243Y287515D01*
X196345Y287478D01*
X196456Y287432D01*
X196576Y287376D01*
X196835Y287247D01*
X197094Y287080D01*
X197223Y286979D01*
X197353Y286877D01*
X197464Y286766D01*
X197575Y286637D01*
X197584Y286627D01*
X197602Y286609D01*
X197621Y286563D01*
X197658Y286516D01*
X197704Y286443D01*
X197750Y286369D01*
X197796Y286267D01*
X197843Y286165D01*
X197898Y286045D01*
X197944Y285916D01*
X197991Y285777D01*
X198037Y285629D01*
X198074Y285472D01*
X198092Y285305D01*
X198111Y285130D01*
X198120Y284945D01*
Y284843D01*
X198111Y284769D01*
Y284686D01*
X198102Y284584D01*
X198083Y284473D01*
X198065Y284344D01*
X198018Y284076D01*
X197944Y283798D01*
X197843Y283521D01*
X197778Y283391D01*
X197704Y283262D01*
X197695Y283253D01*
X197686Y283234D01*
X197658Y283197D01*
X197621Y283160D01*
X197584Y283105D01*
X197528Y283040D01*
X197464Y282966D01*
X197390Y282892D01*
X197306Y282818D01*
X197223Y282735D01*
X197011Y282569D01*
X196761Y282411D01*
X196484Y282273D01*
X196474D01*
X196447Y282254D01*
X196400Y282245D01*
X196345Y282217D01*
X196271Y282199D01*
X196178Y282171D01*
X196077Y282134D01*
X195966Y282106D01*
X195846Y282079D01*
X195707Y282042D01*
X195420Y281995D01*
X195097Y281958D01*
X194764Y281940D01*
X194755D01*
X194718D01*
X194662D01*
X194597Y281949D01*
X194505D01*
X194413Y281958D01*
X194292Y281968D01*
X194172Y281986D01*
X193904Y282032D01*
X193608Y282097D01*
X193312Y282190D01*
X193026Y282319D01*
X193016Y282328D01*
X192989Y282337D01*
X192952Y282356D01*
X192906Y282393D01*
X192841Y282430D01*
X192767Y282476D01*
X192600Y282596D01*
X192416Y282754D01*
X192231Y282938D01*
X192046Y283151D01*
X191889Y283401D01*
X191879Y283410D01*
X191870Y283438D01*
X191852Y283475D01*
X191824Y283521D01*
X191796Y283595D01*
X191768Y283669D01*
X191731Y283761D01*
X191694Y283863D01*
X191657Y283974D01*
X191620Y284094D01*
X191565Y284353D01*
X191519Y284649D01*
X191500Y284954D01*
Y285046D01*
X191509Y285111D01*
X191519Y285194D01*
X191528Y285296D01*
X191537Y285398D01*
X191565Y285518D01*
X191620Y285768D01*
X191704Y286045D01*
X191759Y286184D01*
X191824Y286313D01*
X191907Y286443D01*
X191990Y286572D01*
X191999Y286581D01*
X192009Y286600D01*
X192036Y286637D01*
X192083Y286683D01*
X192129Y286729D01*
X192194Y286794D01*
X192268Y286859D01*
X192342Y286933D01*
X192434Y287006D01*
X192545Y287080D01*
X192656Y287164D01*
X192776Y287238D01*
X192915Y287302D01*
X193053Y287376D01*
X193201Y287432D01*
X193368Y287487D01*
X193562Y286655D01*
X193553D01*
X193534Y286646D01*
X193497Y286627D01*
X193451Y286609D01*
X193396Y286590D01*
X193322Y286563D01*
X193174Y286489D01*
X193007Y286396D01*
X192841Y286285D01*
X192684Y286147D01*
X192545Y285999D01*
X192526Y285980D01*
X192489Y285925D01*
X192443Y285832D01*
X192379Y285712D01*
X192323Y285555D01*
X192268Y285379D01*
X192231Y285167D01*
X192221Y284935D01*
Y284862D01*
X192231Y284815D01*
Y284750D01*
X192240Y284677D01*
X192268Y284501D01*
X192305Y284307D01*
X192369Y284103D01*
X192462Y283891D01*
X192582Y283696D01*
Y283687D01*
X192600Y283678D01*
X192647Y283613D01*
X192721Y283530D01*
X192832Y283428D01*
X192970Y283308D01*
X193127Y283197D01*
X193322Y283096D01*
X193534Y283003D01*
X193543D01*
X193562Y282994D01*
X193590Y282985D01*
X193636Y282975D01*
X193691Y282957D01*
X193756Y282938D01*
X193913Y282911D01*
X194098Y282874D01*
X194302Y282837D01*
X194524Y282818D01*
X194764Y282809D01*
X194773D01*
X194801D01*
X194847D01*
X194903D01*
X194967Y282818D01*
X195051D01*
X195143Y282827D01*
X195245Y282837D01*
X195467Y282864D01*
X195707Y282911D01*
X195947Y282966D01*
X196188Y283040D01*
X196197D01*
X196215Y283049D01*
X196243Y283068D01*
X196289Y283086D01*
X196400Y283142D01*
X196530Y283225D01*
X196678Y283327D01*
X196835Y283456D01*
X196974Y283604D01*
X197103Y283780D01*
Y283789D01*
X197112Y283808D01*
X197131Y283835D01*
X197149Y283872D01*
X197168Y283918D01*
X197195Y283974D01*
X197251Y284103D01*
X197306Y284270D01*
X197353Y284455D01*
X197390Y284658D01*
X197399Y284871D01*
Y284935D01*
X197390Y284991D01*
Y285056D01*
X197380Y285120D01*
X197343Y285287D01*
X197297Y285481D01*
X197223Y285675D01*
X197122Y285879D01*
X197066Y285980D01*
X196992Y286073D01*
X196983Y286082D01*
X196974Y286091D01*
X196946Y286119D01*
X196918Y286156D01*
X196872Y286193D01*
X196816Y286239D01*
X196761Y286295D01*
X196687Y286341D01*
X196604Y286396D01*
X196511Y286461D01*
X196419Y286516D01*
X196308Y286572D01*
X196188Y286618D01*
X196058Y286664D01*
X195920Y286711D01*
X195772Y286748D01*
X195984Y287598D01*
X195994D01*
X196031Y287589D01*
D02*
G37*
D12*
X316619Y233050D02*
Y249550D01*
Y233050D02*
X343781D01*
Y249550D01*
X316619D02*
X343781D01*
X113670Y268359D02*
X130170D01*
Y295521D01*
X113670D02*
X130170D01*
X113670Y268359D02*
Y295521D01*
X189870Y268359D02*
X206370D01*
Y295521D01*
X189870D02*
X206370D01*
X189870Y268359D02*
Y295521D01*
M02*
