G04*
G04 #@! TF.GenerationSoftware,Altium Limited,Altium Designer,22.7.1 (60)*
G04*
G04 Layer_Color=32896*
%FSLAX44Y44*%
%MOMM*%
G71*
G04*
G04 #@! TF.SameCoordinates,A4F2FA5D-D4EF-4288-9AD8-153C25E8CDF2*
G04*
G04*
G04 #@! TF.FilePolarity,Positive*
G04*
G01*
G75*
%ADD12C,0.2000*%
G36*
X320909Y159236D02*
X321066Y159347D01*
X321131Y159402D01*
X321196Y159448D01*
X321251Y159495D01*
X321288Y159531D01*
X321316Y159559D01*
X321325Y159569D01*
X321371Y159615D01*
X321418Y159670D01*
X321538Y159800D01*
X321676Y159948D01*
X321815Y160105D01*
X321935Y160253D01*
X321991Y160317D01*
X322046Y160373D01*
X322083Y160419D01*
X322111Y160456D01*
X322129Y160475D01*
X322139Y160484D01*
X322268Y160632D01*
X322388Y160780D01*
X322508Y160909D01*
X322610Y161029D01*
X322712Y161140D01*
X322804Y161233D01*
X322887Y161325D01*
X322962Y161399D01*
X323035Y161473D01*
X323091Y161529D01*
X323137Y161575D01*
X323183Y161621D01*
X323239Y161667D01*
X323257Y161686D01*
X323414Y161815D01*
X323553Y161926D01*
X323692Y162019D01*
X323803Y162093D01*
X323904Y162148D01*
X323979Y162185D01*
X324025Y162204D01*
X324043Y162213D01*
X324182Y162268D01*
X324321Y162305D01*
X324450Y162342D01*
X324561Y162361D01*
X324663Y162370D01*
X324737Y162379D01*
X324783D01*
X324801D01*
X324940Y162370D01*
X325070Y162351D01*
X325199Y162333D01*
X325310Y162296D01*
X325532Y162204D01*
X325707Y162111D01*
X325791Y162056D01*
X325855Y162009D01*
X325920Y161963D01*
X325966Y161917D01*
X326003Y161880D01*
X326040Y161861D01*
X326049Y161843D01*
X326059Y161834D01*
X326151Y161732D01*
X326234Y161621D01*
X326299Y161501D01*
X326355Y161381D01*
X326447Y161140D01*
X326512Y160900D01*
X326530Y160798D01*
X326549Y160697D01*
X326558Y160604D01*
X326567Y160530D01*
X326576Y160465D01*
Y160373D01*
X326567Y160207D01*
X326558Y160049D01*
X326530Y159901D01*
X326502Y159763D01*
X326466Y159633D01*
X326429Y159513D01*
X326382Y159402D01*
X326336Y159300D01*
X326290Y159208D01*
X326244Y159134D01*
X326207Y159069D01*
X326170Y159014D01*
X326142Y158968D01*
X326114Y158940D01*
X326105Y158921D01*
X326096Y158912D01*
X326003Y158820D01*
X325902Y158736D01*
X325791Y158653D01*
X325680Y158588D01*
X325458Y158477D01*
X325236Y158404D01*
X325134Y158376D01*
X325033Y158348D01*
X324949Y158330D01*
X324875Y158311D01*
X324811Y158302D01*
X324764D01*
X324737Y158293D01*
X324727D01*
X324644Y159097D01*
X324857Y159115D01*
X325042Y159152D01*
X325208Y159208D01*
X325338Y159273D01*
X325448Y159328D01*
X325522Y159384D01*
X325569Y159421D01*
X325587Y159439D01*
X325698Y159578D01*
X325781Y159726D01*
X325846Y159883D01*
X325883Y160021D01*
X325911Y160151D01*
X325920Y160262D01*
X325929Y160299D01*
Y160354D01*
X325920Y160548D01*
X325883Y160724D01*
X325828Y160872D01*
X325772Y161002D01*
X325707Y161103D01*
X325661Y161168D01*
X325624Y161214D01*
X325606Y161233D01*
X325476Y161344D01*
X325347Y161427D01*
X325217Y161492D01*
X325088Y161529D01*
X324986Y161556D01*
X324894Y161566D01*
X324838Y161575D01*
X324829D01*
X324820D01*
X324653Y161556D01*
X324478Y161519D01*
X324321Y161455D01*
X324173Y161390D01*
X324053Y161316D01*
X323951Y161251D01*
X323914Y161233D01*
X323886Y161214D01*
X323877Y161196D01*
X323868D01*
X323766Y161122D01*
X323664Y161029D01*
X323553Y160928D01*
X323442Y160817D01*
X323220Y160585D01*
X322999Y160354D01*
X322897Y160234D01*
X322804Y160133D01*
X322721Y160031D01*
X322647Y159948D01*
X322592Y159883D01*
X322545Y159827D01*
X322518Y159790D01*
X322508Y159781D01*
X322314Y159550D01*
X322129Y159337D01*
X321963Y159162D01*
X321824Y159023D01*
X321704Y158903D01*
X321621Y158820D01*
X321565Y158773D01*
X321556Y158755D01*
X321547D01*
X321390Y158625D01*
X321242Y158524D01*
X321094Y158431D01*
X320964Y158357D01*
X320854Y158302D01*
X320770Y158265D01*
X320715Y158246D01*
X320706Y158237D01*
X320696D01*
X320595Y158200D01*
X320502Y158182D01*
X320410Y158163D01*
X320326Y158154D01*
X320252Y158145D01*
X320197D01*
X320160D01*
X320151D01*
Y162388D01*
X320909D01*
Y159236D01*
D02*
G37*
G36*
X326549Y156342D02*
X322139D01*
X321945D01*
X321778Y156323D01*
X321639Y156314D01*
X321528Y156296D01*
X321445Y156277D01*
X321381Y156268D01*
X321343Y156249D01*
X321334D01*
X321242Y156212D01*
X321168Y156166D01*
X321103Y156111D01*
X321038Y156064D01*
X321001Y156009D01*
X320964Y155972D01*
X320946Y155944D01*
X320937Y155935D01*
X320891Y155843D01*
X320854Y155750D01*
X320835Y155658D01*
X320816Y155574D01*
X320807Y155491D01*
X320798Y155436D01*
Y155380D01*
X320807Y155232D01*
X320844Y155094D01*
X320881Y154983D01*
X320937Y154881D01*
X320983Y154807D01*
X321029Y154752D01*
X321057Y154715D01*
X321066Y154705D01*
X321122Y154659D01*
X321186Y154622D01*
X321334Y154567D01*
X321501Y154511D01*
X321667Y154483D01*
X321824Y154456D01*
X321889D01*
X321945Y154446D01*
X322000Y154437D01*
X322037D01*
X322055D01*
X322065D01*
X321954Y153670D01*
X321778D01*
X321621Y153679D01*
X321464Y153707D01*
X321325Y153725D01*
X321196Y153762D01*
X321085Y153799D01*
X320974Y153836D01*
X320881Y153873D01*
X320798Y153919D01*
X320724Y153956D01*
X320659Y153993D01*
X320613Y154030D01*
X320576Y154058D01*
X320539Y154077D01*
X320530Y154086D01*
X320521Y154095D01*
X320437Y154188D01*
X320364Y154280D01*
X320299Y154382D01*
X320243Y154493D01*
X320160Y154705D01*
X320105Y154909D01*
X320068Y155103D01*
X320058Y155177D01*
X320049Y155251D01*
X320040Y155306D01*
Y155389D01*
X320049Y155593D01*
X320077Y155778D01*
X320114Y155944D01*
X320160Y156092D01*
X320197Y156212D01*
X320234Y156296D01*
X320262Y156351D01*
X320271Y156369D01*
X320364Y156517D01*
X320474Y156647D01*
X320585Y156749D01*
X320687Y156841D01*
X320789Y156906D01*
X320863Y156952D01*
X320918Y156980D01*
X320928Y156989D01*
X320937D01*
X321122Y157054D01*
X321316Y157109D01*
X321528Y157146D01*
X321732Y157165D01*
X321908Y157183D01*
X321981D01*
X322055Y157192D01*
X322111D01*
X322148D01*
X322176D01*
X322185D01*
X326549D01*
Y156342D01*
D02*
G37*
D12*
X306340Y89170D02*
X333740D01*
X306340D02*
Y218170D01*
X333740D01*
Y89170D02*
Y218170D01*
M02*
