G04*
G04 #@! TF.GenerationSoftware,Altium Limited,Altium Designer,22.7.1 (60)*
G04*
G04 Layer_Color=16711935*
%FSLAX44Y44*%
%MOMM*%
G71*
G04*
G04 #@! TF.SameCoordinates,A4F2FA5D-D4EF-4288-9AD8-153C25E8CDF2*
G04*
G04*
G04 #@! TF.FilePolarity,Negative*
G04*
G01*
G75*
%ADD26C,1.5500*%
%ADD27R,1.5500X1.5500*%
%ADD28C,1.8532*%
G04:AMPARAMS|DCode=29|XSize=1.8532mm|YSize=1.8532mm|CornerRadius=0.5141mm|HoleSize=0mm|Usage=FLASHONLY|Rotation=270.000|XOffset=0mm|YOffset=0mm|HoleType=Round|Shape=RoundedRectangle|*
%AMROUNDEDRECTD29*
21,1,1.8532,0.8250,0,0,270.0*
21,1,0.8250,1.8532,0,0,270.0*
1,1,1.0282,-0.4125,-0.4125*
1,1,1.0282,-0.4125,0.4125*
1,1,1.0282,0.4125,0.4125*
1,1,1.0282,0.4125,-0.4125*
%
%ADD29ROUNDEDRECTD29*%
%ADD30C,0.8382*%
D26*
X320040Y204470D02*
D03*
Y179070D02*
D03*
Y153670D02*
D03*
Y128270D02*
D03*
D27*
Y102870D02*
D03*
D28*
X30480Y101600D02*
D03*
X55880D02*
D03*
X30480Y177800D02*
D03*
X55880D02*
D03*
X30480Y203200D02*
D03*
X55880D02*
D03*
X30480Y254000D02*
D03*
X55880Y228600D02*
D03*
X30480D02*
D03*
X55880Y152400D02*
D03*
X30480D02*
D03*
X55880Y127000D02*
D03*
X30480D02*
D03*
X55880Y76200D02*
D03*
Y50800D02*
D03*
X30480Y76200D02*
D03*
Y50800D02*
D03*
D29*
X55880Y254000D02*
D03*
D30*
X209550Y177800D02*
D03*
X175514D02*
D03*
Y136144D02*
D03*
X209550D02*
D03*
X179070Y288290D02*
D03*
X128270Y303530D02*
D03*
X233680Y306070D02*
D03*
X160020Y304800D02*
D03*
X351790Y241300D02*
D03*
X354330Y279400D02*
D03*
M02*
