M48
;Layer_Color=9474304
;FILE_FORMAT=4:4
METRIC,LZ
;TYPE=PLATED
T1F00S00C0.3302
T2F00S00C1.0000
T3F00S00C1.1000
%
T01
X00175514Y00136144
X0020955
Y001778
X00175514
X0017907Y0028829
X0016002Y003048
X0012827Y0030353
X0023368Y0030607
X0035433Y002794
X0035179Y002413
T02
X0032004Y0010287
Y0012827
Y0015367
Y0017907
Y0020447
T03
X0003048Y000508
X0005588
Y000762
Y001016
X0003048
Y00127
X0005588
X0003048Y000762
Y001524
Y001778
X0005588
Y002032
X0003048
Y002286
Y00254
X0005588
Y002286
Y001524
M30
