G04*
G04 #@! TF.GenerationSoftware,Altium Limited,Altium Designer,22.7.1 (60)*
G04*
G04 Layer_Color=32896*
%FSLAX44Y44*%
%MOMM*%
G71*
G04*
G04 #@! TF.SameCoordinates,34B7A8A0-57E4-4CCA-9FD8-BF788A575D18*
G04*
G04*
G04 #@! TF.FilePolarity,Positive*
G04*
G01*
G75*
G36*
X59436Y1054100D02*
X58622D01*
Y1059546D01*
X56773Y1054100D01*
X56015D01*
X54148Y1059453D01*
Y1054100D01*
X53334D01*
Y1060498D01*
X54471D01*
X56006Y1056041D01*
X56089Y1055801D01*
X56154Y1055598D01*
X56219Y1055422D01*
X56265Y1055274D01*
X56302Y1055163D01*
X56330Y1055080D01*
X56339Y1055034D01*
X56348Y1055015D01*
X56385Y1055145D01*
X56431Y1055293D01*
X56487Y1055450D01*
X56533Y1055607D01*
X56579Y1055746D01*
X56616Y1055856D01*
X56635Y1055903D01*
X56644Y1055930D01*
X56653Y1055949D01*
Y1055958D01*
X58169Y1060498D01*
X59436D01*
Y1054100D01*
D02*
G37*
G36*
X51956D02*
X51106D01*
Y1056698D01*
X49469D01*
X49229Y1056707D01*
X48998Y1056726D01*
X48794Y1056753D01*
X48609Y1056790D01*
X48434Y1056827D01*
X48286Y1056874D01*
X48147Y1056929D01*
X48027Y1056984D01*
X47925Y1057031D01*
X47833Y1057086D01*
X47759Y1057132D01*
X47703Y1057179D01*
X47657Y1057206D01*
X47629Y1057234D01*
X47611Y1057253D01*
X47602Y1057262D01*
X47509Y1057373D01*
X47426Y1057484D01*
X47361Y1057595D01*
X47297Y1057715D01*
X47241Y1057835D01*
X47204Y1057946D01*
X47140Y1058159D01*
X47121Y1058260D01*
X47102Y1058353D01*
X47093Y1058436D01*
X47084Y1058501D01*
X47075Y1058566D01*
Y1058603D01*
Y1058630D01*
Y1058640D01*
X47084Y1058815D01*
X47102Y1058981D01*
X47140Y1059129D01*
X47167Y1059259D01*
X47204Y1059370D01*
X47241Y1059453D01*
X47260Y1059499D01*
X47269Y1059518D01*
X47343Y1059657D01*
X47435Y1059777D01*
X47519Y1059888D01*
X47602Y1059971D01*
X47676Y1060035D01*
X47731Y1060091D01*
X47768Y1060119D01*
X47787Y1060128D01*
X47907Y1060202D01*
X48046Y1060267D01*
X48175Y1060322D01*
X48295Y1060368D01*
X48406Y1060396D01*
X48489Y1060415D01*
X48554Y1060433D01*
X48573D01*
X48711Y1060452D01*
X48868Y1060470D01*
X49035Y1060479D01*
X49192Y1060489D01*
X49331Y1060498D01*
X51956D01*
Y1054100D01*
D02*
G37*
G36*
X46585Y1056356D02*
Y1055635D01*
X43802D01*
Y1054100D01*
X43016D01*
Y1055635D01*
X42147D01*
Y1056356D01*
X43016D01*
Y1060498D01*
X43654D01*
X46585Y1056356D01*
D02*
G37*
G36*
X43816Y66970D02*
X44066Y66924D01*
X44279Y66850D01*
X44464Y66776D01*
X44547Y66730D01*
X44612Y66693D01*
X44676Y66656D01*
X44722Y66619D01*
X44759Y66591D01*
X44787Y66572D01*
X44806Y66563D01*
X44815Y66554D01*
X44991Y66378D01*
X45129Y66184D01*
X45240Y65981D01*
X45333Y65777D01*
X45388Y65602D01*
X45416Y65528D01*
X45434Y65463D01*
X45444Y65408D01*
X45453Y65370D01*
X45462Y65343D01*
Y65333D01*
X44676Y65195D01*
X44639Y65398D01*
X44584Y65574D01*
X44519Y65722D01*
X44454Y65842D01*
X44390Y65935D01*
X44334Y65999D01*
X44297Y66045D01*
X44288Y66055D01*
X44168Y66147D01*
X44038Y66221D01*
X43918Y66267D01*
X43798Y66304D01*
X43687Y66323D01*
X43604Y66341D01*
X43530D01*
X43363Y66332D01*
X43215Y66295D01*
X43086Y66249D01*
X42975Y66203D01*
X42892Y66147D01*
X42827Y66101D01*
X42781Y66064D01*
X42772Y66055D01*
X42670Y65944D01*
X42596Y65824D01*
X42550Y65703D01*
X42513Y65592D01*
X42494Y65491D01*
X42476Y65417D01*
Y65361D01*
Y65352D01*
Y65343D01*
Y65241D01*
X42494Y65149D01*
X42541Y64991D01*
X42605Y64853D01*
X42679Y64733D01*
X42753Y64649D01*
X42818Y64585D01*
X42864Y64548D01*
X42873Y64538D01*
X42883D01*
X43040Y64455D01*
X43188Y64391D01*
X43345Y64344D01*
X43484Y64317D01*
X43604Y64298D01*
X43706Y64280D01*
X43826D01*
X43863Y64289D01*
X43909D01*
X44001Y63595D01*
X43881Y63623D01*
X43770Y63642D01*
X43678Y63660D01*
X43595Y63669D01*
X43530Y63679D01*
X43447D01*
X43253Y63660D01*
X43077Y63623D01*
X42920Y63568D01*
X42790Y63503D01*
X42688Y63438D01*
X42614Y63383D01*
X42568Y63346D01*
X42550Y63327D01*
X42430Y63189D01*
X42337Y63041D01*
X42272Y62893D01*
X42235Y62745D01*
X42208Y62625D01*
X42199Y62523D01*
X42189Y62486D01*
Y62458D01*
Y62440D01*
Y62430D01*
X42208Y62227D01*
X42254Y62042D01*
X42309Y61885D01*
X42383Y61746D01*
X42457Y61635D01*
X42513Y61552D01*
X42559Y61497D01*
X42578Y61478D01*
X42726Y61349D01*
X42883Y61256D01*
X43040Y61192D01*
X43188Y61145D01*
X43317Y61118D01*
X43419Y61108D01*
X43456Y61099D01*
X43511D01*
X43678Y61108D01*
X43835Y61145D01*
X43974Y61192D01*
X44085Y61247D01*
X44177Y61293D01*
X44251Y61340D01*
X44288Y61376D01*
X44307Y61386D01*
X44417Y61515D01*
X44510Y61663D01*
X44593Y61820D01*
X44658Y61987D01*
X44704Y62125D01*
X44722Y62190D01*
X44732Y62245D01*
X44741Y62292D01*
X44750Y62329D01*
X44759Y62347D01*
Y62357D01*
X45545Y62255D01*
X45527Y62107D01*
X45499Y61968D01*
X45416Y61709D01*
X45314Y61487D01*
X45259Y61395D01*
X45203Y61302D01*
X45148Y61219D01*
X45092Y61154D01*
X45046Y61090D01*
X45000Y61044D01*
X44972Y61007D01*
X44944Y60979D01*
X44926Y60960D01*
X44917Y60951D01*
X44806Y60868D01*
X44695Y60785D01*
X44584Y60720D01*
X44464Y60665D01*
X44233Y60572D01*
X44011Y60517D01*
X43909Y60498D01*
X43816Y60480D01*
X43733Y60470D01*
X43659Y60461D01*
X43604Y60452D01*
X43521D01*
X43345Y60461D01*
X43188Y60480D01*
X43031Y60507D01*
X42883Y60544D01*
X42744Y60591D01*
X42624Y60637D01*
X42504Y60692D01*
X42402Y60748D01*
X42300Y60794D01*
X42217Y60849D01*
X42143Y60896D01*
X42087Y60942D01*
X42041Y60979D01*
X42004Y61007D01*
X41986Y61025D01*
X41977Y61034D01*
X41866Y61145D01*
X41773Y61266D01*
X41690Y61386D01*
X41616Y61506D01*
X41561Y61617D01*
X41505Y61737D01*
X41431Y61959D01*
X41413Y62061D01*
X41394Y62153D01*
X41376Y62236D01*
X41366Y62310D01*
X41357Y62366D01*
Y62412D01*
Y62440D01*
Y62449D01*
X41366Y62671D01*
X41403Y62874D01*
X41459Y63050D01*
X41514Y63198D01*
X41570Y63318D01*
X41625Y63411D01*
X41662Y63466D01*
X41672Y63484D01*
X41801Y63623D01*
X41940Y63743D01*
X42087Y63836D01*
X42235Y63910D01*
X42365Y63965D01*
X42467Y64002D01*
X42504Y64011D01*
X42531Y64021D01*
X42550Y64030D01*
X42559D01*
X42402Y64113D01*
X42272Y64196D01*
X42161Y64289D01*
X42069Y64372D01*
X41995Y64446D01*
X41940Y64511D01*
X41912Y64548D01*
X41903Y64566D01*
X41829Y64696D01*
X41773Y64825D01*
X41727Y64955D01*
X41699Y65075D01*
X41681Y65176D01*
X41672Y65250D01*
Y65306D01*
Y65324D01*
X41681Y65482D01*
X41708Y65639D01*
X41745Y65777D01*
X41792Y65897D01*
X41838Y65999D01*
X41875Y66082D01*
X41903Y66129D01*
X41912Y66147D01*
X42004Y66286D01*
X42115Y66406D01*
X42226Y66508D01*
X42337Y66600D01*
X42430Y66665D01*
X42513Y66720D01*
X42568Y66748D01*
X42578Y66757D01*
X42587D01*
X42753Y66831D01*
X42920Y66887D01*
X43086Y66933D01*
X43234Y66961D01*
X43354Y66979D01*
X43456Y66989D01*
X43687D01*
X43816Y66970D01*
D02*
G37*
G36*
X58674Y60563D02*
X57860D01*
Y66009D01*
X56011Y60563D01*
X55253D01*
X53386Y65916D01*
Y60563D01*
X52572D01*
Y66961D01*
X53709D01*
X55244Y62504D01*
X55327Y62264D01*
X55392Y62061D01*
X55457Y61885D01*
X55503Y61737D01*
X55540Y61626D01*
X55568Y61543D01*
X55577Y61497D01*
X55586Y61478D01*
X55623Y61608D01*
X55669Y61755D01*
X55725Y61913D01*
X55771Y62070D01*
X55817Y62208D01*
X55854Y62319D01*
X55873Y62366D01*
X55882Y62393D01*
X55891Y62412D01*
Y62421D01*
X57407Y66961D01*
X58674D01*
Y60563D01*
D02*
G37*
G36*
X51194D02*
X50344D01*
Y63161D01*
X48707D01*
X48467Y63170D01*
X48236Y63189D01*
X48032Y63216D01*
X47847Y63253D01*
X47672Y63290D01*
X47524Y63337D01*
X47385Y63392D01*
X47265Y63447D01*
X47163Y63494D01*
X47071Y63549D01*
X46997Y63595D01*
X46941Y63642D01*
X46895Y63669D01*
X46867Y63697D01*
X46849Y63716D01*
X46840Y63725D01*
X46747Y63836D01*
X46664Y63947D01*
X46599Y64058D01*
X46535Y64178D01*
X46479Y64298D01*
X46442Y64409D01*
X46378Y64622D01*
X46359Y64723D01*
X46340Y64816D01*
X46331Y64899D01*
X46322Y64964D01*
X46313Y65028D01*
Y65065D01*
Y65093D01*
Y65102D01*
X46322Y65278D01*
X46340Y65444D01*
X46378Y65592D01*
X46405Y65722D01*
X46442Y65833D01*
X46479Y65916D01*
X46498Y65962D01*
X46507Y65981D01*
X46581Y66119D01*
X46673Y66240D01*
X46757Y66351D01*
X46840Y66434D01*
X46914Y66498D01*
X46969Y66554D01*
X47006Y66582D01*
X47025Y66591D01*
X47145Y66665D01*
X47284Y66730D01*
X47413Y66785D01*
X47533Y66831D01*
X47644Y66859D01*
X47727Y66878D01*
X47792Y66896D01*
X47811D01*
X47949Y66915D01*
X48106Y66933D01*
X48273Y66942D01*
X48430Y66951D01*
X48569Y66961D01*
X51194D01*
Y60563D01*
D02*
G37*
G36*
X1250104Y1060516D02*
X1250261Y1060507D01*
X1250409Y1060479D01*
X1250548Y1060452D01*
X1250677Y1060415D01*
X1250797Y1060378D01*
X1250908Y1060331D01*
X1251010Y1060285D01*
X1251102Y1060239D01*
X1251176Y1060193D01*
X1251241Y1060156D01*
X1251296Y1060119D01*
X1251343Y1060091D01*
X1251370Y1060063D01*
X1251389Y1060054D01*
X1251398Y1060045D01*
X1251491Y1059952D01*
X1251574Y1059851D01*
X1251657Y1059740D01*
X1251722Y1059629D01*
X1251833Y1059407D01*
X1251907Y1059185D01*
X1251934Y1059083D01*
X1251962Y1058981D01*
X1251981Y1058898D01*
X1251999Y1058824D01*
X1252008Y1058760D01*
Y1058713D01*
X1252018Y1058686D01*
Y1058676D01*
X1251213Y1058593D01*
X1251195Y1058806D01*
X1251158Y1058991D01*
X1251102Y1059157D01*
X1251038Y1059287D01*
X1250982Y1059398D01*
X1250927Y1059472D01*
X1250890Y1059518D01*
X1250871Y1059536D01*
X1250732Y1059647D01*
X1250585Y1059730D01*
X1250427Y1059795D01*
X1250289Y1059832D01*
X1250159Y1059860D01*
X1250048Y1059869D01*
X1250011Y1059878D01*
X1249956D01*
X1249762Y1059869D01*
X1249586Y1059832D01*
X1249438Y1059777D01*
X1249309Y1059721D01*
X1249207Y1059657D01*
X1249142Y1059610D01*
X1249096Y1059573D01*
X1249078Y1059555D01*
X1248967Y1059425D01*
X1248883Y1059296D01*
X1248819Y1059166D01*
X1248782Y1059037D01*
X1248754Y1058935D01*
X1248745Y1058843D01*
X1248736Y1058787D01*
Y1058778D01*
Y1058769D01*
X1248754Y1058603D01*
X1248791Y1058427D01*
X1248856Y1058270D01*
X1248920Y1058122D01*
X1248994Y1058001D01*
X1249059Y1057900D01*
X1249078Y1057863D01*
X1249096Y1057835D01*
X1249115Y1057826D01*
Y1057817D01*
X1249189Y1057715D01*
X1249281Y1057613D01*
X1249383Y1057502D01*
X1249494Y1057391D01*
X1249725Y1057169D01*
X1249956Y1056947D01*
X1250076Y1056846D01*
X1250178Y1056753D01*
X1250279Y1056670D01*
X1250363Y1056596D01*
X1250427Y1056541D01*
X1250483Y1056495D01*
X1250520Y1056467D01*
X1250529Y1056458D01*
X1250760Y1056263D01*
X1250973Y1056078D01*
X1251149Y1055912D01*
X1251287Y1055773D01*
X1251407Y1055653D01*
X1251491Y1055570D01*
X1251537Y1055514D01*
X1251555Y1055505D01*
Y1055496D01*
X1251685Y1055339D01*
X1251786Y1055191D01*
X1251879Y1055043D01*
X1251953Y1054913D01*
X1252008Y1054802D01*
X1252045Y1054719D01*
X1252064Y1054664D01*
X1252073Y1054655D01*
Y1054645D01*
X1252110Y1054544D01*
X1252129Y1054451D01*
X1252147Y1054359D01*
X1252156Y1054276D01*
X1252166Y1054202D01*
Y1054146D01*
Y1054109D01*
Y1054100D01*
X1247922D01*
Y1054858D01*
X1251075D01*
X1250964Y1055015D01*
X1250908Y1055080D01*
X1250862Y1055145D01*
X1250816Y1055200D01*
X1250779Y1055237D01*
X1250751Y1055265D01*
X1250742Y1055274D01*
X1250695Y1055320D01*
X1250640Y1055367D01*
X1250511Y1055487D01*
X1250363Y1055625D01*
X1250206Y1055764D01*
X1250058Y1055884D01*
X1249993Y1055940D01*
X1249937Y1055995D01*
X1249891Y1056032D01*
X1249854Y1056060D01*
X1249836Y1056078D01*
X1249826Y1056088D01*
X1249678Y1056217D01*
X1249531Y1056337D01*
X1249401Y1056458D01*
X1249281Y1056559D01*
X1249170Y1056661D01*
X1249078Y1056753D01*
X1248985Y1056837D01*
X1248911Y1056910D01*
X1248837Y1056984D01*
X1248782Y1057040D01*
X1248736Y1057086D01*
X1248689Y1057132D01*
X1248643Y1057188D01*
X1248624Y1057206D01*
X1248495Y1057364D01*
X1248384Y1057502D01*
X1248292Y1057641D01*
X1248218Y1057752D01*
X1248162Y1057854D01*
X1248125Y1057928D01*
X1248107Y1057974D01*
X1248098Y1057992D01*
X1248042Y1058131D01*
X1248005Y1058270D01*
X1247968Y1058399D01*
X1247950Y1058510D01*
X1247940Y1058612D01*
X1247931Y1058686D01*
Y1058732D01*
Y1058750D01*
X1247940Y1058889D01*
X1247959Y1059018D01*
X1247977Y1059148D01*
X1248014Y1059259D01*
X1248107Y1059481D01*
X1248199Y1059657D01*
X1248255Y1059740D01*
X1248301Y1059804D01*
X1248347Y1059869D01*
X1248393Y1059915D01*
X1248430Y1059952D01*
X1248449Y1059989D01*
X1248467Y1059999D01*
X1248477Y1060008D01*
X1248578Y1060100D01*
X1248689Y1060183D01*
X1248809Y1060248D01*
X1248930Y1060304D01*
X1249170Y1060396D01*
X1249410Y1060461D01*
X1249512Y1060479D01*
X1249614Y1060498D01*
X1249706Y1060507D01*
X1249780Y1060516D01*
X1249845Y1060526D01*
X1249937D01*
X1250104Y1060516D01*
D02*
G37*
G36*
X1265174Y1054100D02*
X1264361D01*
Y1059546D01*
X1262511Y1054100D01*
X1261753D01*
X1259886Y1059453D01*
Y1054100D01*
X1259072D01*
Y1060498D01*
X1260209D01*
X1261744Y1056041D01*
X1261827Y1055801D01*
X1261892Y1055598D01*
X1261957Y1055422D01*
X1262003Y1055274D01*
X1262040Y1055163D01*
X1262068Y1055080D01*
X1262077Y1055034D01*
X1262086Y1055015D01*
X1262123Y1055145D01*
X1262169Y1055293D01*
X1262225Y1055450D01*
X1262271Y1055607D01*
X1262317Y1055746D01*
X1262354Y1055856D01*
X1262373Y1055903D01*
X1262382Y1055930D01*
X1262391Y1055949D01*
Y1055958D01*
X1263907Y1060498D01*
X1265174D01*
Y1054100D01*
D02*
G37*
G36*
X1257694D02*
X1256844D01*
Y1056698D01*
X1255207D01*
X1254967Y1056707D01*
X1254736Y1056726D01*
X1254532Y1056753D01*
X1254348Y1056790D01*
X1254172Y1056827D01*
X1254024Y1056874D01*
X1253885Y1056929D01*
X1253765Y1056984D01*
X1253663Y1057031D01*
X1253571Y1057086D01*
X1253497Y1057132D01*
X1253441Y1057179D01*
X1253395Y1057206D01*
X1253367Y1057234D01*
X1253349Y1057253D01*
X1253340Y1057262D01*
X1253247Y1057373D01*
X1253164Y1057484D01*
X1253099Y1057595D01*
X1253035Y1057715D01*
X1252979Y1057835D01*
X1252942Y1057946D01*
X1252878Y1058159D01*
X1252859Y1058260D01*
X1252840Y1058353D01*
X1252831Y1058436D01*
X1252822Y1058501D01*
X1252813Y1058566D01*
Y1058603D01*
Y1058630D01*
Y1058640D01*
X1252822Y1058815D01*
X1252840Y1058981D01*
X1252878Y1059129D01*
X1252905Y1059259D01*
X1252942Y1059370D01*
X1252979Y1059453D01*
X1252998Y1059499D01*
X1253007Y1059518D01*
X1253081Y1059657D01*
X1253173Y1059777D01*
X1253257Y1059888D01*
X1253340Y1059971D01*
X1253414Y1060035D01*
X1253469Y1060091D01*
X1253506Y1060119D01*
X1253525Y1060128D01*
X1253645Y1060202D01*
X1253783Y1060267D01*
X1253913Y1060322D01*
X1254033Y1060368D01*
X1254144Y1060396D01*
X1254227Y1060415D01*
X1254292Y1060433D01*
X1254311D01*
X1254449Y1060452D01*
X1254606Y1060470D01*
X1254773Y1060479D01*
X1254930Y1060489D01*
X1255069Y1060498D01*
X1257694D01*
Y1054100D01*
D02*
G37*
G36*
X1230901Y66720D02*
X1231003Y66572D01*
X1231123Y66424D01*
X1231234Y66295D01*
X1231345Y66184D01*
X1231428Y66092D01*
X1231465Y66064D01*
X1231493Y66036D01*
X1231502Y66027D01*
X1231511Y66018D01*
X1231705Y65861D01*
X1231899Y65713D01*
X1232084Y65583D01*
X1232269Y65482D01*
X1232427Y65389D01*
X1232491Y65352D01*
X1232547Y65324D01*
X1232593Y65297D01*
X1232630Y65287D01*
X1232648Y65269D01*
X1232658D01*
Y64511D01*
X1232519Y64566D01*
X1232380Y64631D01*
X1232242Y64696D01*
X1232112Y64760D01*
X1232001Y64816D01*
X1231909Y64862D01*
X1231853Y64899D01*
X1231844Y64908D01*
X1231835D01*
X1231668Y65010D01*
X1231520Y65112D01*
X1231391Y65204D01*
X1231289Y65287D01*
X1231197Y65352D01*
X1231141Y65408D01*
X1231095Y65444D01*
X1231086Y65454D01*
Y60452D01*
X1230300D01*
Y66878D01*
X1230808D01*
X1230901Y66720D01*
D02*
G37*
G36*
X1246378Y60452D02*
X1245564D01*
Y65897D01*
X1243715Y60452D01*
X1242957D01*
X1241090Y65805D01*
Y60452D01*
X1240276D01*
Y66850D01*
X1241413D01*
X1242948Y62393D01*
X1243031Y62153D01*
X1243096Y61950D01*
X1243161Y61774D01*
X1243207Y61626D01*
X1243244Y61515D01*
X1243272Y61432D01*
X1243281Y61386D01*
X1243290Y61367D01*
X1243327Y61497D01*
X1243373Y61645D01*
X1243429Y61802D01*
X1243475Y61959D01*
X1243521Y62098D01*
X1243558Y62208D01*
X1243577Y62255D01*
X1243586Y62283D01*
X1243595Y62301D01*
Y62310D01*
X1245111Y66850D01*
X1246378D01*
Y60452D01*
D02*
G37*
G36*
X1238898D02*
X1238048D01*
Y63050D01*
X1236411D01*
X1236171Y63059D01*
X1235940Y63078D01*
X1235736Y63105D01*
X1235552Y63142D01*
X1235376Y63179D01*
X1235228Y63226D01*
X1235089Y63281D01*
X1234969Y63337D01*
X1234867Y63383D01*
X1234775Y63438D01*
X1234701Y63484D01*
X1234645Y63531D01*
X1234599Y63558D01*
X1234572Y63586D01*
X1234553Y63605D01*
X1234544Y63614D01*
X1234451Y63725D01*
X1234368Y63836D01*
X1234303Y63947D01*
X1234239Y64067D01*
X1234183Y64187D01*
X1234146Y64298D01*
X1234081Y64511D01*
X1234063Y64612D01*
X1234044Y64705D01*
X1234035Y64788D01*
X1234026Y64853D01*
X1234017Y64917D01*
Y64955D01*
Y64982D01*
Y64991D01*
X1234026Y65167D01*
X1234044Y65333D01*
X1234081Y65482D01*
X1234109Y65611D01*
X1234146Y65722D01*
X1234183Y65805D01*
X1234202Y65851D01*
X1234211Y65870D01*
X1234285Y66009D01*
X1234377Y66129D01*
X1234461Y66240D01*
X1234544Y66323D01*
X1234618Y66388D01*
X1234673Y66443D01*
X1234710Y66471D01*
X1234729Y66480D01*
X1234849Y66554D01*
X1234987Y66619D01*
X1235117Y66674D01*
X1235237Y66720D01*
X1235348Y66748D01*
X1235431Y66767D01*
X1235496Y66785D01*
X1235515D01*
X1235653Y66804D01*
X1235810Y66822D01*
X1235977Y66831D01*
X1236134Y66841D01*
X1236273Y66850D01*
X1238898D01*
Y60452D01*
D02*
G37*
%LPC*%
G36*
X51106Y1059740D02*
X49275D01*
X49109Y1059730D01*
X48970Y1059721D01*
X48859Y1059712D01*
X48785Y1059694D01*
X48730Y1059684D01*
X48693Y1059675D01*
X48684D01*
X48563Y1059629D01*
X48462Y1059573D01*
X48369Y1059518D01*
X48286Y1059453D01*
X48231Y1059388D01*
X48184Y1059342D01*
X48156Y1059305D01*
X48147Y1059296D01*
X48082Y1059185D01*
X48027Y1059074D01*
X47990Y1058954D01*
X47972Y1058852D01*
X47953Y1058760D01*
X47944Y1058676D01*
Y1058630D01*
Y1058621D01*
Y1058612D01*
X47962Y1058418D01*
X47999Y1058251D01*
X48055Y1058103D01*
X48120Y1057983D01*
X48184Y1057891D01*
X48240Y1057817D01*
X48277Y1057780D01*
X48295Y1057761D01*
X48360Y1057706D01*
X48443Y1057659D01*
X48619Y1057586D01*
X48813Y1057530D01*
X49007Y1057493D01*
X49183Y1057475D01*
X49257Y1057465D01*
X49321D01*
X49386Y1057456D01*
X51106D01*
Y1059740D01*
D02*
G37*
G36*
X43802Y1059222D02*
Y1056356D01*
X45817D01*
X43802Y1059222D01*
D02*
G37*
G36*
X50344Y66203D02*
X48513D01*
X48347Y66193D01*
X48208Y66184D01*
X48097Y66175D01*
X48023Y66156D01*
X47968Y66147D01*
X47931Y66138D01*
X47922D01*
X47801Y66092D01*
X47700Y66036D01*
X47607Y65981D01*
X47524Y65916D01*
X47469Y65851D01*
X47422Y65805D01*
X47394Y65768D01*
X47385Y65759D01*
X47320Y65648D01*
X47265Y65537D01*
X47228Y65417D01*
X47210Y65315D01*
X47191Y65223D01*
X47182Y65139D01*
Y65093D01*
Y65084D01*
Y65075D01*
X47200Y64880D01*
X47237Y64714D01*
X47293Y64566D01*
X47358Y64446D01*
X47422Y64353D01*
X47478Y64280D01*
X47515Y64243D01*
X47533Y64224D01*
X47598Y64169D01*
X47681Y64122D01*
X47857Y64048D01*
X48051Y63993D01*
X48245Y63956D01*
X48421Y63938D01*
X48495Y63928D01*
X48559D01*
X48624Y63919D01*
X50344D01*
Y66203D01*
D02*
G37*
G36*
X1256844Y1059740D02*
X1255013D01*
X1254847Y1059730D01*
X1254708Y1059721D01*
X1254597Y1059712D01*
X1254523Y1059694D01*
X1254468Y1059684D01*
X1254431Y1059675D01*
X1254421D01*
X1254301Y1059629D01*
X1254200Y1059573D01*
X1254107Y1059518D01*
X1254024Y1059453D01*
X1253969Y1059388D01*
X1253922Y1059342D01*
X1253895Y1059305D01*
X1253885Y1059296D01*
X1253820Y1059185D01*
X1253765Y1059074D01*
X1253728Y1058954D01*
X1253710Y1058852D01*
X1253691Y1058760D01*
X1253682Y1058676D01*
Y1058630D01*
Y1058621D01*
Y1058612D01*
X1253700Y1058418D01*
X1253737Y1058251D01*
X1253793Y1058103D01*
X1253857Y1057983D01*
X1253922Y1057891D01*
X1253978Y1057817D01*
X1254015Y1057780D01*
X1254033Y1057761D01*
X1254098Y1057706D01*
X1254181Y1057659D01*
X1254357Y1057586D01*
X1254551Y1057530D01*
X1254745Y1057493D01*
X1254921Y1057475D01*
X1254995Y1057465D01*
X1255059D01*
X1255124Y1057456D01*
X1256844D01*
Y1059740D01*
D02*
G37*
G36*
X1238048Y66092D02*
X1236217D01*
X1236051Y66082D01*
X1235912Y66073D01*
X1235801Y66064D01*
X1235727Y66045D01*
X1235672Y66036D01*
X1235635Y66027D01*
X1235626D01*
X1235505Y65981D01*
X1235404Y65925D01*
X1235311Y65870D01*
X1235228Y65805D01*
X1235173Y65740D01*
X1235126Y65694D01*
X1235098Y65657D01*
X1235089Y65648D01*
X1235024Y65537D01*
X1234969Y65426D01*
X1234932Y65306D01*
X1234914Y65204D01*
X1234895Y65112D01*
X1234886Y65028D01*
Y64982D01*
Y64973D01*
Y64964D01*
X1234904Y64770D01*
X1234941Y64603D01*
X1234997Y64455D01*
X1235061Y64335D01*
X1235126Y64243D01*
X1235182Y64169D01*
X1235219Y64132D01*
X1235237Y64113D01*
X1235302Y64058D01*
X1235385Y64011D01*
X1235561Y63938D01*
X1235755Y63882D01*
X1235949Y63845D01*
X1236125Y63826D01*
X1236199Y63817D01*
X1236263D01*
X1236328Y63808D01*
X1238048D01*
Y66092D01*
D02*
G37*
%LPD*%
M02*
