G04*
G04 #@! TF.GenerationSoftware,Altium Limited,Altium Designer,22.7.1 (60)*
G04*
G04 Layer_Color=16711935*
%FSLAX44Y44*%
%MOMM*%
G71*
G04*
G04 #@! TF.SameCoordinates,34B7A8A0-57E4-4CCA-9FD8-BF788A575D18*
G04*
G04*
G04 #@! TF.FilePolarity,Positive*
G04*
G01*
G75*
%ADD10C,0.2000*%
%ADD14C,0.0254*%
%ADD17C,0.0762*%
%ADD81C,0.1000*%
%ADD82C,0.0000*%
D10*
X823928Y643520D02*
Y673520D01*
Y643520D02*
X853928D01*
Y673520D01*
X823928D02*
X853928D01*
X892174Y642736D02*
Y657236D01*
Y642736D02*
X914274D01*
Y657236D01*
X892174D02*
X914274D01*
X819530Y607430D02*
Y621930D01*
Y607430D02*
X841630D01*
Y621930D01*
X819530D02*
X841630D01*
X277294Y48876D02*
X299794D01*
Y62376D01*
X277294D02*
X299794D01*
X277294Y48876D02*
Y62376D01*
X319044Y94980D02*
Y219980D01*
X258044D02*
X319044D01*
X258044Y94980D02*
Y219980D01*
Y94980D02*
X319044D01*
X1302250Y391930D02*
Y456430D01*
X1237750D02*
X1302250D01*
X1237750Y391930D02*
Y456430D01*
Y391930D02*
X1302250D01*
Y506230D02*
Y570730D01*
X1237750D02*
X1302250D01*
X1237750Y506230D02*
Y570730D01*
Y506230D02*
X1302250D01*
X12200Y518930D02*
Y583430D01*
Y518930D02*
X76700D01*
Y583430D01*
X12200D02*
X76700D01*
X123366Y571866D02*
X145366D01*
X123366D02*
Y585866D01*
X145366D01*
Y571866D02*
Y585866D01*
X646680Y488680D02*
X722380D01*
Y461280D02*
Y488680D01*
X646680Y461280D02*
X722380D01*
X646680D02*
Y488680D01*
X1116700Y603680D02*
Y625680D01*
X1131200D01*
Y603680D02*
Y625680D01*
X1116700Y603680D02*
X1131200D01*
X1065900D02*
Y625680D01*
X1080400D01*
Y603680D02*
Y625680D01*
X1065900Y603680D02*
X1080400D01*
X100700Y946580D02*
Y968580D01*
X115200D01*
Y946580D02*
Y968580D01*
X100700Y946580D02*
X115200D01*
X58790Y946530D02*
Y968630D01*
X73290D01*
Y946530D02*
Y968630D01*
X58790Y946530D02*
X73290D01*
X652130Y427150D02*
X666130D01*
Y449150D01*
X652130D02*
X666130D01*
X652130Y427150D02*
Y449150D01*
X1205850Y527480D02*
Y549480D01*
X1219850D01*
Y527480D02*
Y549480D01*
X1205850Y527480D02*
X1219850D01*
X864500Y851280D02*
Y873380D01*
X850000Y851280D02*
X864500D01*
X850000D02*
Y873380D01*
X864500D01*
X794650Y851330D02*
Y873330D01*
X780150Y851330D02*
X794650D01*
X780150D02*
Y873330D01*
X794650D01*
X928000Y470330D02*
Y492330D01*
X913500Y470330D02*
X928000D01*
X913500D02*
Y492330D01*
X928000D01*
X945250Y584630D02*
Y606630D01*
X959750D01*
Y584630D02*
Y606630D01*
X945250Y584630D02*
X959750D01*
X1118500Y470330D02*
Y492330D01*
X1104000Y470330D02*
X1118500D01*
X1104000D02*
Y492330D01*
X1118500D01*
X1080400Y470330D02*
Y492330D01*
X1065900Y470330D02*
X1080400D01*
X1065900D02*
Y492330D01*
X1080400D01*
X1001850Y823830D02*
Y837330D01*
X979350Y823830D02*
X1001850D01*
X979350D02*
Y837330D01*
X1001850D01*
X580771Y957072D02*
Y1288288D01*
X701929D01*
Y957072D02*
Y1288288D01*
X580771Y957072D02*
X701929D01*
X733171D02*
Y1288288D01*
X854329D01*
Y957072D02*
Y1288288D01*
X733171Y957072D02*
X854329D01*
X917321D02*
Y1288288D01*
X1038479D01*
Y957072D02*
Y1288288D01*
X917321Y957072D02*
X1038479D01*
X1082421D02*
Y1288288D01*
X1203579D01*
Y957072D02*
Y1288288D01*
X1082421Y957072D02*
X1203579D01*
X299593D02*
Y1288288D01*
X420751D01*
Y957072D02*
Y1288288D01*
X299593Y957072D02*
X420751D01*
X140843D02*
Y1288288D01*
X262001D01*
Y957072D02*
Y1288288D01*
X140843Y957072D02*
X262001D01*
X440050Y761280D02*
Y810880D01*
X537850D01*
Y761280D02*
Y810880D01*
X440050Y761280D02*
X537850D01*
X249550D02*
Y810880D01*
X347350D01*
Y761280D02*
Y810880D01*
X249550Y761280D02*
X347350D01*
X301150Y716380D02*
X321150D01*
X301150D02*
Y728880D01*
X321150D01*
Y716380D02*
Y728880D01*
X104300Y716380D02*
X124300D01*
X104300D02*
Y728880D01*
X124300D01*
Y716380D02*
Y728880D01*
X48890Y761280D02*
Y810880D01*
X146690D01*
Y761280D02*
Y810880D01*
X48890Y761280D02*
X146690D01*
X1030400Y836030D02*
Y850530D01*
Y836030D02*
X1052400D01*
Y850530D01*
X1030400D02*
X1052400D01*
X1030350Y893180D02*
Y907680D01*
Y893180D02*
X1052450D01*
Y907680D01*
X1030350D02*
X1052450D01*
X450690Y716380D02*
Y728880D01*
X430690D02*
X450690D01*
X430690Y716380D02*
Y728880D01*
Y716380D02*
X450690D01*
X1142750Y664480D02*
Y691880D01*
X1067050D02*
X1142750D01*
X1067050Y664480D02*
Y691880D01*
Y664480D02*
X1142750D01*
X722380Y588280D02*
Y615680D01*
X646680D02*
X722380D01*
X646680Y588280D02*
Y615680D01*
Y588280D02*
X722380D01*
X860900Y500480D02*
Y512980D01*
X840900D02*
X860900D01*
X840900Y500480D02*
Y512980D01*
Y500480D02*
X860900D01*
Y551280D02*
Y563780D01*
X840900D02*
X860900D01*
X840900Y551280D02*
Y563780D01*
Y551280D02*
X860900D01*
D14*
X1124839Y517017D02*
Y521843D01*
Y517017D02*
X1135888D01*
Y521843D01*
X1124839D02*
X1135888D01*
X1124839Y529717D02*
Y534543D01*
Y529717D02*
X1135888D01*
Y534543D01*
X1124839D02*
X1135888D01*
X1124839Y542417D02*
Y547243D01*
Y542417D02*
X1135888D01*
Y547243D01*
X1124839D02*
X1135888D01*
X1124839Y555117D02*
Y559943D01*
Y555117D02*
X1135888D01*
Y559943D01*
X1124839D02*
X1135888D01*
X1084961Y555117D02*
Y559943D01*
X1073912D02*
X1084961D01*
X1073912Y555117D02*
Y559943D01*
Y555117D02*
X1084961D01*
Y542417D02*
Y547243D01*
X1073912D02*
X1084961D01*
X1073912Y542417D02*
Y547243D01*
Y542417D02*
X1084961D01*
Y529717D02*
Y534543D01*
X1073912D02*
X1084961D01*
X1073912Y529717D02*
Y534543D01*
Y529717D02*
X1084961D01*
Y517017D02*
Y521843D01*
X1073912D02*
X1084961D01*
X1073912Y517017D02*
Y521843D01*
Y517017D02*
X1084961D01*
Y563499D02*
X1124839D01*
X1084961Y513461D02*
Y563499D01*
Y513461D02*
X1124839D01*
Y563499D01*
X311760Y870966D02*
X316840D01*
Y877316D01*
X311760D02*
X316840D01*
X311760Y870966D02*
Y877316D01*
X302260Y870966D02*
X307340D01*
Y877316D01*
X302260D02*
X307340D01*
X302260Y870966D02*
Y877316D01*
X292760Y870966D02*
X297840D01*
Y877316D01*
X292760D02*
X297840D01*
X292760Y870966D02*
Y877316D01*
Y853694D02*
X297840D01*
X292760Y847344D02*
Y853694D01*
Y847344D02*
X297840D01*
Y853694D01*
X311760D02*
X316840D01*
X311760Y847344D02*
Y853694D01*
Y847344D02*
X316840D01*
Y853694D01*
X289687D02*
Y870966D01*
Y853694D02*
X319913D01*
Y870966D01*
X289687D02*
X319913D01*
X470510D02*
X475590D01*
Y877316D01*
X470510D02*
X475590D01*
X470510Y870966D02*
Y877316D01*
X461010Y870966D02*
X466090D01*
Y877316D01*
X461010D02*
X466090D01*
X461010Y870966D02*
Y877316D01*
X451510Y870966D02*
X456590D01*
Y877316D01*
X451510D02*
X456590D01*
X451510Y870966D02*
Y877316D01*
Y853694D02*
X456590D01*
X451510Y847344D02*
Y853694D01*
Y847344D02*
X456590D01*
Y853694D01*
X470510D02*
X475590D01*
X470510Y847344D02*
Y853694D01*
Y847344D02*
X475590D01*
Y853694D01*
X448437D02*
Y870966D01*
Y853694D02*
X478663D01*
Y870966D01*
X448437D02*
X478663D01*
X109830D02*
X114910D01*
Y877316D01*
X109830D02*
X114910D01*
X109830Y870966D02*
Y877316D01*
X100330Y870966D02*
X105410D01*
Y877316D01*
X100330D02*
X105410D01*
X100330Y870966D02*
Y877316D01*
X90830Y870966D02*
X95910D01*
Y877316D01*
X90830D02*
X95910D01*
X90830Y870966D02*
Y877316D01*
Y853694D02*
X95910D01*
X90830Y847344D02*
Y853694D01*
Y847344D02*
X95910D01*
Y853694D01*
X109830D02*
X114910D01*
X109830Y847344D02*
Y853694D01*
Y847344D02*
X114910D01*
Y853694D01*
X87757D02*
Y870966D01*
Y853694D02*
X117983D01*
Y870966D01*
X87757D02*
X117983D01*
D17*
X1124204Y516343D02*
X1115740Y524807D01*
X1124204D02*
X1115740Y516343D01*
X1124204Y520575D02*
X1115740D01*
X1119972Y524807D02*
Y516343D01*
X317768Y871601D02*
X309304Y863137D01*
Y871601D02*
X317768Y863137D01*
X313536Y871601D02*
Y863137D01*
X309304Y867369D02*
X317768D01*
X476518Y871601D02*
X468054Y863137D01*
Y871601D02*
X476518Y863137D01*
X472286Y871601D02*
Y863137D01*
X468054Y867369D02*
X476518D01*
X115838Y871601D02*
X107374Y863137D01*
Y871601D02*
X115838Y863137D01*
X111606Y871601D02*
Y863137D01*
X107374Y867369D02*
X115838D01*
D81*
X42672Y716280D02*
G03*
X42672Y716280I-12700J0D01*
G01*
X417830Y816610D02*
G03*
X417830Y816610I-12700J0D01*
G01*
X785876Y647954D02*
G03*
X785876Y647954I-12700J0D01*
G01*
X1016000Y481330D02*
G03*
X1016000Y481330I-12700J0D01*
G01*
X815340Y457200D02*
G03*
X815340Y457200I-12700J0D01*
G01*
X795700Y549480D02*
G03*
X795700Y549480I-5000J0D01*
G01*
X1282700Y621030D02*
G03*
X1282700Y621030I-12700J0D01*
G01*
X955800Y522480D02*
G03*
X955800Y522480I-5000J0D01*
G01*
X428498Y90678D02*
X580898D01*
X428498Y65278D02*
Y90678D01*
Y65278D02*
X580898D01*
Y90678D01*
X429768Y227330D02*
X582168D01*
Y252730D01*
X429768D02*
X582168D01*
X429768Y227330D02*
Y252730D01*
X240968Y61330D02*
X262968D01*
X240968Y75830D02*
X262968D01*
Y61330D02*
Y75830D01*
X240968Y61330D02*
Y75830D01*
Y29072D02*
X262968D01*
X240968Y43572D02*
X262968D01*
Y29072D02*
Y43572D01*
X240968Y29072D02*
Y43572D01*
X336688Y48944D02*
Y70944D01*
X322188Y48944D02*
Y70944D01*
X336688D01*
X322188Y48944D02*
X336688D01*
X775540Y594730D02*
Y609230D01*
X753540Y594730D02*
Y609230D01*
Y594730D02*
X775540D01*
X753540Y609230D02*
X775540D01*
X773000Y467730D02*
Y482230D01*
X751000Y467730D02*
Y482230D01*
Y467730D02*
X773000D01*
X751000Y482230D02*
X773000D01*
X1185750Y524880D02*
Y539380D01*
X1163750Y524880D02*
Y539380D01*
Y524880D02*
X1185750D01*
X1163750Y539380D02*
X1185750D01*
X557190Y849230D02*
X578190D01*
X557190Y862730D02*
X578190D01*
Y849230D02*
Y862730D01*
X557190Y849230D02*
Y862730D01*
X713408Y518530D02*
Y533030D01*
X735408Y518530D02*
Y533030D01*
X713408D02*
X735408D01*
X713408Y518530D02*
X735408D01*
X712900Y543930D02*
Y558430D01*
X734900Y543930D02*
Y558430D01*
X712900D02*
X734900D01*
X712900Y543930D02*
X734900D01*
X749700Y518480D02*
Y558480D01*
X799700Y518480D02*
Y558480D01*
X749700Y518480D02*
X799700D01*
X749700Y558480D02*
X799700D01*
X989700Y879680D02*
X1004200D01*
X989700Y857680D02*
X1004200D01*
Y879680D01*
X989700Y857680D02*
Y879680D01*
X1019380Y795390D02*
Y809890D01*
X997380Y795390D02*
Y809890D01*
Y795390D02*
X1019380D01*
X997380Y809890D02*
X1019380D01*
X513450Y825930D02*
X527950D01*
X513450Y847930D02*
X527950D01*
X513450Y825930D02*
Y847930D01*
X527950Y825930D02*
Y847930D01*
X411850Y864030D02*
X426350D01*
X411850Y886030D02*
X426350D01*
X411850Y864030D02*
Y886030D01*
X426350Y864030D02*
Y886030D01*
X246750Y864030D02*
X261250D01*
X246750Y886030D02*
X261250D01*
X246750Y864030D02*
Y886030D01*
X261250Y864030D02*
Y886030D01*
X49900Y864030D02*
X64400D01*
X49900Y886030D02*
X64400D01*
X49900Y864030D02*
Y886030D01*
X64400Y864030D02*
Y886030D01*
X362850Y825930D02*
Y847930D01*
X348350Y825930D02*
Y847930D01*
X362850D01*
X348350Y825930D02*
X362850D01*
X159650D02*
Y847930D01*
X145150Y825930D02*
Y847930D01*
X159650D01*
X145150Y825930D02*
X159650D01*
X207630Y383530D02*
Y617230D01*
X158130Y383530D02*
X207630D01*
X158130D02*
Y617230D01*
X207630D01*
X959800Y513480D02*
Y563480D01*
X919800Y513480D02*
Y563480D01*
Y513480D02*
X959800D01*
X919800Y563480D02*
X959800D01*
X1024550Y526180D02*
X1045550D01*
X1024550Y512680D02*
X1045550D01*
X1024550D02*
Y526180D01*
X1045550Y512680D02*
Y526180D01*
X447690Y435600D02*
X471790D01*
Y567700D01*
X447690D02*
X471790D01*
X447690Y435600D02*
Y567700D01*
D82*
X1107948Y513461D02*
G03*
X1101852Y513461I-3048J0D01*
G01*
X319913Y865378D02*
G03*
X319913Y859282I0J-3048D01*
G01*
X478663Y865378D02*
G03*
X478663Y859282I0J-3048D01*
G01*
X117983Y865378D02*
G03*
X117983Y859282I0J-3048D01*
G01*
M02*
