G04*
G04 #@! TF.GenerationSoftware,Altium Limited,Altium Designer,22.7.1 (60)*
G04*
G04 Layer_Color=32768*
%FSLAX44Y44*%
%MOMM*%
G71*
G04*
G04 #@! TF.SameCoordinates,34B7A8A0-57E4-4CCA-9FD8-BF788A575D18*
G04*
G04*
G04 #@! TF.FilePolarity,Positive*
G04*
G01*
G75*
%ADD81C,0.1000*%
D81*
X819150Y763270D02*
X869950D01*
X819150D02*
Y788670D01*
X869950D01*
Y763270D02*
Y788670D01*
X1205230Y718312D02*
X1256030D01*
X1205230D02*
Y743712D01*
X1256030D01*
Y718312D02*
Y743712D01*
X509270Y887730D02*
Y938530D01*
X534670D01*
Y887730D02*
Y938530D01*
X509270Y887730D02*
X534670D01*
X63500Y441960D02*
Y467360D01*
Y441960D02*
X114300D01*
Y467360D01*
X63500D02*
X114300D01*
X972820Y354330D02*
Y379730D01*
X922020D02*
X972820D01*
X922020Y354330D02*
Y379730D01*
Y354330D02*
X972820D01*
X971550Y728980D02*
Y754380D01*
X920750D02*
X971550D01*
X920750Y728980D02*
Y754380D01*
Y728980D02*
X971550D01*
X171450Y767080D02*
X196850D01*
X171450Y716280D02*
Y767080D01*
Y716280D02*
X196850D01*
Y767080D01*
X825500Y468630D02*
X876300D01*
Y443230D02*
Y468630D01*
X825500Y443230D02*
X876300D01*
X825500D02*
Y468630D01*
X482600Y735330D02*
X533400D01*
Y709930D02*
Y735330D01*
X482600Y709930D02*
X533400D01*
X482600D02*
Y735330D01*
X406400Y716280D02*
Y767080D01*
X381000Y716280D02*
X406400D01*
X381000D02*
Y767080D01*
X406400D01*
X977900Y601980D02*
X1028700D01*
X977900D02*
Y627380D01*
X1028700D01*
Y601980D02*
Y627380D01*
X14732Y640842D02*
X65532D01*
X14732D02*
Y666242D01*
X65532D01*
Y640842D02*
Y666242D01*
M02*
