M48
;Layer_Color=9474304
;FILE_FORMAT=4:4
METRIC,LZ
;TYPE=PLATED
T1F00S00C0.3302
T2F00S00C0.7000
T3F00S00C1.0000
T4F00S00C1.0200
T5F00S00C1.0400
T6F00S00C1.1000
T7F00S00C1.3000
T8F00S00C2.2000
;TYPE=NON_PLATED
T9F00S00C2.9464
%
T01
X00244348Y00016764
X00259842Y0001651
X00245618Y0008382
X00225806Y0011557
X00226046Y00131464
X00212076
X00198106
X00184136
X00170166
X00156196
X00160343Y00148497
X00146373
X00252476Y00225044
X00276098Y0022987
X00325374Y00230632
X00347726Y00114808
X00329184Y00036576
X00142226Y00131464
X00128256
X00114286
X00100316
X00088524Y00138954
X00078646Y00148832
X00068767Y0015871
X00058889Y00168589
X00049011Y00178467
X00039133Y00188345
X00035934Y00201944
Y00215914
Y00229884
Y00243854
Y00257824
Y00271794
Y00285764
Y00299734
Y00313704
Y00327674
Y00341644
Y00355614
X00052966Y00350763
Y00336793
Y00322823
Y00308853
Y00294883
Y00280913
Y00266943
Y00252973
Y00239003
Y00225033
Y00211063
X00054399Y00197167
X00064278Y00187288
X00074156Y0017741
X00084034Y00167532
X00093913Y00157654
X00104463Y00148497
X00118433
X00132403
X00052966Y00364733
Y00378703
Y00392673
Y00406643
Y00420613
Y00434583
Y00448553
Y00462523
Y00476493
Y00490463
Y00504433
X00035934Y00509284
Y00495314
Y00481344
Y00467374
Y00453404
Y00439434
Y00425464
Y00411494
Y00397524
Y00383554
Y00369584
X00090354Y00542664
X00104324
X00118294
X00117804Y00559696
X00103834
X00089864
X00112014Y00593852
X0008128Y0072136
X0028194Y0072263
X0042926Y0070104
X00482243Y00513813
X00496213
X00510183
X00524153
X00538123
X00538069Y00489487
X00524099
X00510129
X00496159
X00482189
X00552039
X00552093Y00513813
X00586219Y00509499
X00576341Y00499621
X0057366Y00531341
X00583538Y00541219
X00594208Y00550238
X00608172Y00550643
X00622142
X00636112
X00650082
X00664052
X00675542Y00558588
Y00572558
X00693518Y00566314
X0070485Y0055118
X00691672Y00538497
X00704088Y0052578
X00693518Y00510679
Y00496709
X00675542Y0050433
Y005183
X00664102Y00526317
X00650132
X00636162
X00622192
X00608222
X00596098Y00519378
X00681878Y00452479
X00691757Y00442601
X00703651Y00435274
X00717621
X00731591
X00745561
X00759531
X00773501
X00787471
X00801441
X00815411
X00829381
X00843346Y00434898
X00857125Y004326
X00871096
X00885066
X00899035
X00913006
X00926975
X00925902Y0041576
X00911932
X00897962
X00883992
X00870022
X00856052
X0084328Y0041656
X00828256Y00416052
X00814324
X00800354
X00786384
X00772414
X00758444
X00744474
X00730504
X00716534
X00702564
X00688983Y00421559
X00679105Y00431438
X0065913Y0041402
X0073025Y0049911
X0072898Y0057658
X0080264Y005842
X0081534Y005969
X00822452Y00634746
X0085344Y0061468
X00837946Y00682244
X00841817Y00699335
X00855787
X00869757
X00883727
X00897697
X00911667
X0093218Y006985
Y0068072
X00930656Y00650748
X0088186Y00682495
X00827847Y00699335
X00813877
X00799907
X00785937
X00771967
X00757997
X00744027
X00731317Y00693538
X00721438Y0068366
X0071156Y00673781
X00701682Y00663903
X00691804Y00654025
X00681925Y00644146
X00672047Y00634268
X00662169Y0062439
X00683008Y00621414
X00692886Y00631292
X00702764Y0064117
X00712643Y00651049
X0072644Y0066548
X0088011Y0055753
X0092075Y004572
X00940946Y004326
X00954915
X00968885
X00982856
X00996825
X01010796
X01024765
X01038736
X01052706
X01066675
X01080646
X01094615
X01108586
X01122555
X01136525
X01150496
X01164465
X01178436
X01192405
X01206376
X01220346
X01219272Y0041576
X01205302
X01191332
X01177362
X01163392
X01149422
X01135452
X01121482
X01107512
X01093542
X01079572
X01065602
X01051632
X01037662
X01023692
X01009722
X00995752
X00981782
X00967812
X00953842
X00939872
X0094234Y0049022
X0105283Y0047244
X010922Y0048895
X0113284Y0047244
X0115443Y0051054
X0115697Y005588
X0121285Y0056007
X0126158Y00587661
Y00601631
X0127842Y00598203
Y00584233
X01251458Y00627664
X0124158Y00637542
X01231702Y00647421
X01221824Y00657299
X01211945Y00667177
X01202067Y00677055
X011892Y00682495
X0117523
X0116126
X01163127Y00699335
X01177097
X01191067
X01200573Y00699275
X01211874Y00691063
X01221753Y00681185
X01231631Y00671307
X01241509Y00661428
X01251387Y0065155
X01261266Y00641672
X0112395Y0063754
X0109982Y0061595
X0107315Y0063754
X01079307Y00699335
X01093277
X01107247
X01121217
X01135187
X01149157
X01065337
X01051367
X01037397
X01023427
X01009457
X00995487
X00981517
X00967547
X00953577
X0095171Y00682495
X0096568
X0097965
X0099362
X0100759
X0102156
X0103553
X010495
X009525Y0062611
X0097663Y0058547
X0097028Y008509
X0099822Y0089154
X010668Y0089916
Y0084328
X0103124Y0080264
X008382Y008509
X008128
X0059055Y0085598
X0054102Y0085471
X0051943Y0081407
X0046355Y0089535
X004191Y0085217
X003556Y0081534
X003048Y0089281
X0025273Y0085217
X0017018Y0082931
X001016Y0089408
X0005715Y0085217
X0004826Y0096774
X0012827
T02
X0027305Y0078613
X0029845
X0032385
X0046355
X0048895
X0051435
X0012319
X0009779
X0007239
T03
X00029972Y0071628
X00773176Y00647954
X0080264Y004572
X010033Y0048133
X0127Y0062103
X0040513Y0081661
T04
X00542798Y00077978
X00568198
X00569468Y0024003
X00544068
X00518668
X00493268
X00467868
X00442468
X00441198Y00077978
X00466598
X00491998
X00517398
X0065913Y0047498
X0068453
X0070993
Y0060198
X0068453
X0065913
X010795Y0067818
X011049
X011303
T05
X0017018Y0039878
X0019558
Y0042418
Y0044958
Y0047498
Y0050038
Y0052578
Y0055118
Y0057658
Y0060198
X0017018
Y0057658
Y0055118
Y0052578
Y0050038
Y0047498
Y0044958
Y0042418
X0045974Y0045085
Y0047625
Y0050165
Y0052705
Y0055245
T06
X000762Y0045466
X001016
X00052832Y00653542
X00027432
X0018415Y0072898
Y0075438
X003937
Y0072898
X004953Y0072263
X005207
X0093345Y0074168
X008636Y0045593
X008382
X0093472Y0036703
X0096012
X009906Y0061468
X01016
X0095885Y0074168
X0121793Y00731012
X0124333
X0085725Y0077597
X0083185
X0052197Y0090043
Y0092583
T07
X010287Y00974725
X010922
Y01076325
X010287
X011938
Y00974725
X009271
X0084455
X0074295
X0069215
X0059055
Y01076325
X0069215
X0074295
X0084455
X009271
X00410972
X00309372
X00252222
X00150622
Y00974725
X00252222
X00309372
X00410972
T08
X009779Y01012825
X01143
X0079375
X0064135
X00360172
X00201422
T09
X01246378Y00060452
X00058674
X01265174Y010541
X00059436
M30
