G04*
G04 #@! TF.GenerationSoftware,Altium Limited,Altium Designer,22.7.1 (60)*
G04*
G04 Layer_Color=65535*
%FSLAX44Y44*%
%MOMM*%
G71*
G04*
G04 #@! TF.SameCoordinates,A4F2FA5D-D4EF-4288-9AD8-153C25E8CDF2*
G04*
G04*
G04 #@! TF.FilePolarity,Positive*
G04*
G01*
G75*
%ADD10C,1.1430*%
%ADD11C,0.2032*%
%ADD12C,0.2000*%
%ADD13C,0.2540*%
D10*
X92456Y262128D02*
G03*
X92456Y262128I-254J0D01*
G01*
D11*
X83090Y51308D02*
X98774D01*
X83026Y51371D02*
Y66484D01*
X302006Y51308D02*
Y67056D01*
X286829Y51308D02*
X302006D01*
X286258Y268732D02*
X301943D01*
X302006Y253556D02*
Y268668D01*
X84074Y253746D02*
Y269431D01*
X84137Y269494D02*
X99250D01*
D12*
X317619Y252550D02*
X342781D01*
X317619Y230050D02*
X342781D01*
X110670Y269359D02*
Y294521D01*
X133170Y269359D02*
Y294521D01*
X186870Y269359D02*
Y294521D01*
X209370Y269359D02*
Y294521D01*
D13*
X75990Y197272D02*
X74932Y196214D01*
Y194098D01*
X75990Y193040D01*
X80222D01*
X81280Y194098D01*
Y196214D01*
X80222Y197272D01*
X74932Y199388D02*
X81280D01*
Y203620D01*
X74932Y205736D02*
X81280D01*
X79164D01*
X74932Y209968D01*
X78106Y206794D01*
X81280Y209968D01*
X21590Y295651D02*
Y291420D01*
X23706Y289303D01*
X25822Y291420D01*
Y295651D01*
X32170Y294594D02*
X31112Y295651D01*
X28996D01*
X27938Y294594D01*
Y293535D01*
X28996Y292477D01*
X31112D01*
X32170Y291420D01*
Y290361D01*
X31112Y289303D01*
X28996D01*
X27938Y290361D01*
X38518Y294594D02*
X37460Y295651D01*
X35344D01*
X34286Y294594D01*
Y293535D01*
X35344Y292477D01*
X37460D01*
X38518Y291420D01*
Y290361D01*
X37460Y289303D01*
X35344D01*
X34286Y290361D01*
X25822Y281938D02*
X21590D01*
Y275590D01*
X25822D01*
X21590Y278764D02*
X23706D01*
X32170Y280880D02*
X31112Y281938D01*
X28996D01*
X27938Y280880D01*
Y279822D01*
X28996Y278764D01*
X31112D01*
X32170Y277706D01*
Y276648D01*
X31112Y275590D01*
X28996D01*
X27938Y276648D01*
X34286Y281938D02*
Y275590D01*
X37460D01*
X38518Y276648D01*
Y280880D01*
X37460Y281938D01*
X34286D01*
X75990Y77892D02*
X74932Y76834D01*
Y74718D01*
X75990Y73660D01*
X80222D01*
X81280Y74718D01*
Y76834D01*
X80222Y77892D01*
X74932Y84240D02*
Y80008D01*
X78106D01*
X77048Y82124D01*
Y83182D01*
X78106Y84240D01*
X80222D01*
X81280Y83182D01*
Y81066D01*
X80222Y80008D01*
X7622Y145202D02*
Y140970D01*
X13970D01*
Y145202D01*
X10796Y140970D02*
Y143086D01*
X7622Y150492D02*
Y148376D01*
X8680Y147318D01*
X12912D01*
X13970Y148376D01*
Y150492D01*
X12912Y151550D01*
X8680D01*
X7622Y150492D01*
X8680Y157898D02*
X7622Y156840D01*
Y154724D01*
X8680Y153666D01*
X12912D01*
X13970Y154724D01*
Y156840D01*
X12912Y157898D01*
X82550Y165100D02*
X76202D01*
X78318Y167216D01*
X76202Y169332D01*
X82550D01*
X76202Y171448D02*
X81492D01*
X82550Y172506D01*
Y174622D01*
X81492Y175680D01*
X76202D01*
Y177796D02*
X82550Y182028D01*
X76202D02*
X82550Y177796D01*
Y184144D02*
Y186260D01*
Y185202D01*
X76202D01*
X77260Y184144D01*
X340360Y132078D02*
X342899D01*
X341630D01*
Y124460D01*
X340360D01*
X342899D01*
X346708D02*
Y132078D01*
X351786Y124460D01*
Y132078D01*
X354325Y124460D02*
Y132078D01*
X359404Y124460D01*
Y132078D01*
X7622Y222250D02*
X13970D01*
Y225424D01*
X12912Y226482D01*
X8680D01*
X7622Y225424D01*
Y222250D01*
Y228598D02*
X11854D01*
X13970Y230714D01*
X11854Y232830D01*
X7622D01*
X8680Y239178D02*
X7622Y238120D01*
Y236004D01*
X8680Y234946D01*
X9738D01*
X10796Y236004D01*
Y238120D01*
X11854Y239178D01*
X12912D01*
X13970Y238120D01*
Y236004D01*
X12912Y234946D01*
X8680Y245526D02*
X7622Y244468D01*
Y242352D01*
X8680Y241294D01*
X9738D01*
X10796Y242352D01*
Y244468D01*
X11854Y245526D01*
X12912D01*
X13970Y244468D01*
Y242352D01*
X12912Y241294D01*
X77260Y100752D02*
X76202Y99694D01*
Y97578D01*
X77260Y96520D01*
X81492D01*
X82550Y97578D01*
Y99694D01*
X81492Y100752D01*
X76202Y107100D02*
X77260Y104984D01*
X79376Y102868D01*
X81492D01*
X82550Y103926D01*
Y106042D01*
X81492Y107100D01*
X80434D01*
X79376Y106042D01*
Y102868D01*
X340360Y157478D02*
Y152399D01*
X342899Y149860D01*
X345438Y152399D01*
Y157478D01*
X353056Y156208D02*
X351786Y157478D01*
X349247D01*
X347977Y156208D01*
Y151130D01*
X349247Y149860D01*
X351786D01*
X353056Y151130D01*
X355595Y149860D02*
Y157478D01*
X358134Y154938D01*
X360673Y157478D01*
Y149860D01*
X8680Y99482D02*
X7622Y98424D01*
Y96308D01*
X8680Y95250D01*
X12912D01*
X13970Y96308D01*
Y98424D01*
X12912Y99482D01*
X13970Y101598D02*
Y103714D01*
Y102656D01*
X7622D01*
X8680Y101598D01*
X110065Y51932D02*
X108584Y53413D01*
X105621D01*
X104140Y51932D01*
Y46007D01*
X105621Y44526D01*
X108584D01*
X110065Y46007D01*
X113027Y53413D02*
Y44526D01*
Y48969D01*
X114508Y50451D01*
X117471D01*
X118952Y48969D01*
Y44526D01*
X126358D02*
X123395D01*
X121914Y46007D01*
Y48969D01*
X123395Y50451D01*
X126358D01*
X127839Y48969D01*
Y47488D01*
X121914D01*
X130801Y44526D02*
Y50451D01*
X135245D01*
X136726Y48969D01*
Y44526D01*
X142651Y41564D02*
X144132D01*
X145613Y43045D01*
Y50451D01*
X141170D01*
X139689Y48969D01*
Y46007D01*
X141170Y44526D01*
X145613D01*
X148576D02*
Y50451D01*
X150057D01*
X151538Y48969D01*
Y44526D01*
Y48969D01*
X153019Y50451D01*
X154500Y48969D01*
Y44526D01*
X157463D02*
X160425D01*
X158944D01*
Y50451D01*
X157463D01*
X164869Y44526D02*
Y50451D01*
X169312D01*
X170793Y48969D01*
Y44526D01*
X176718Y41564D02*
X178199D01*
X179681Y43045D01*
Y50451D01*
X175237D01*
X173756Y48969D01*
Y46007D01*
X175237Y44526D01*
X179681D01*
X182643Y53413D02*
Y44526D01*
X188568D01*
X191530D02*
X194492D01*
X193011D01*
Y50451D01*
X191530D01*
X198936Y44526D02*
X204861Y50451D01*
X207823Y44526D02*
Y53413D01*
X210786Y50451D01*
X213748Y53413D01*
Y44526D01*
X216710D02*
X219673D01*
X218192D01*
Y50451D01*
X216710D01*
X224116Y44526D02*
Y50451D01*
X228560D01*
X230041Y48969D01*
Y44526D01*
X235966Y41564D02*
X237447D01*
X238928Y43045D01*
Y50451D01*
X234485D01*
X233003Y48969D01*
Y46007D01*
X234485Y44526D01*
X238928D01*
X241891Y41564D02*
X243372D01*
X244853Y43045D01*
Y50451D01*
X250778Y44526D02*
X253740D01*
X252259D01*
Y50451D01*
X250778D01*
X262627Y44526D02*
X259665D01*
X258183Y46007D01*
Y48969D01*
X259665Y50451D01*
X262627D01*
X264108Y48969D01*
Y47488D01*
X258183D01*
X267071Y44526D02*
Y53413D01*
X270033Y50451D01*
X272995Y53413D01*
Y44526D01*
X277439Y50451D02*
X280401D01*
X281882Y48969D01*
Y44526D01*
X277439D01*
X275958Y46007D01*
X277439Y47488D01*
X281882D01*
X104140Y26284D02*
X105621Y24803D01*
X108584D01*
X110065Y26284D01*
Y32209D01*
X108584Y33690D01*
X105621D01*
X104140Y32209D01*
Y30728D01*
X105621Y29246D01*
X110065D01*
X113027D02*
X118952D01*
X121914Y33690D02*
Y24803D01*
X126358D01*
X127839Y26284D01*
Y27765D01*
X126358Y29246D01*
X121914D01*
X126358D01*
X127839Y30728D01*
Y32209D01*
X126358Y33690D01*
X121914D01*
X130801Y24803D02*
X133764D01*
X132283D01*
Y30728D01*
X130801D01*
X139689Y32209D02*
Y30728D01*
X138207D01*
X141170D01*
X139689D01*
Y26284D01*
X141170Y24803D01*
X104140Y8042D02*
Y13967D01*
X107102Y16930D01*
X110065Y13967D01*
Y8042D01*
Y12486D01*
X104140D01*
X113027Y16930D02*
Y8042D01*
X117471D01*
X118952Y9524D01*
Y15448D01*
X117471Y16930D01*
X113027D01*
X127839Y15448D02*
X126358Y16930D01*
X123395D01*
X121914Y15448D01*
Y9524D01*
X123395Y8042D01*
X126358D01*
X127839Y9524D01*
X130801Y12486D02*
X136726D01*
X139689Y16930D02*
Y8042D01*
X144132D01*
X145613Y9524D01*
Y15448D01*
X144132Y16930D01*
X139689D01*
X150057Y13967D02*
X153019D01*
X154500Y12486D01*
Y8042D01*
X150057D01*
X148576Y9524D01*
X150057Y11005D01*
X154500D01*
X157463Y13967D02*
Y9524D01*
X158944Y8042D01*
X163388D01*
Y13967D01*
X169312Y5080D02*
X170793D01*
X172275Y6561D01*
Y13967D01*
X167831D01*
X166350Y12486D01*
Y9524D01*
X167831Y8042D01*
X172275D01*
X176718Y15448D02*
Y13967D01*
X175237D01*
X178199D01*
X176718D01*
Y9524D01*
X178199Y8042D01*
X182643Y16930D02*
Y8042D01*
Y12486D01*
X184124Y13967D01*
X187087D01*
X188568Y12486D01*
Y8042D01*
X195974D02*
X193011D01*
X191530Y9524D01*
Y12486D01*
X193011Y13967D01*
X195974D01*
X197455Y12486D01*
Y11005D01*
X191530D01*
X200417Y13967D02*
Y8042D01*
Y11005D01*
X201898Y12486D01*
X203380Y13967D01*
X204861D01*
X209304Y16930D02*
Y8042D01*
X213748D01*
X215229Y9524D01*
Y11005D01*
X213748Y12486D01*
X209304D01*
X213748D01*
X215229Y13967D01*
Y15448D01*
X213748Y16930D01*
X209304D01*
X219673Y8042D02*
X222635D01*
X224116Y9524D01*
Y12486D01*
X222635Y13967D01*
X219673D01*
X218192Y12486D01*
Y9524D01*
X219673Y8042D01*
X228560Y13967D02*
X231522D01*
X233003Y12486D01*
Y8042D01*
X228560D01*
X227079Y9524D01*
X228560Y11005D01*
X233003D01*
X235966Y13967D02*
Y8042D01*
Y11005D01*
X237447Y12486D01*
X238928Y13967D01*
X240409D01*
X250778Y16930D02*
Y8042D01*
X246334D01*
X244853Y9524D01*
Y12486D01*
X246334Y13967D01*
X250778D01*
X74720Y39792D02*
X73662Y38734D01*
Y36618D01*
X74720Y35560D01*
X78952D01*
X80010Y36618D01*
Y38734D01*
X78952Y39792D01*
X80010Y45082D02*
X73662D01*
X76836Y41908D01*
Y46140D01*
X340360Y99060D02*
Y104138D01*
X342899Y106678D01*
X345438Y104138D01*
Y99060D01*
Y102869D01*
X340360D01*
X347977Y106678D02*
Y101599D01*
X350517Y99060D01*
X353056Y101599D01*
Y106678D01*
X360673Y105408D02*
X359404Y106678D01*
X356865D01*
X355595Y105408D01*
Y104138D01*
X356865Y102869D01*
X359404D01*
X360673Y101599D01*
Y100330D01*
X359404Y99060D01*
X356865D01*
X355595Y100330D01*
X368291Y105408D02*
X367021Y106678D01*
X364482D01*
X363213Y105408D01*
Y104138D01*
X364482Y102869D01*
X367021D01*
X368291Y101599D01*
Y100330D01*
X367021Y99060D01*
X364482D01*
X363213Y100330D01*
X77260Y149012D02*
X76202Y147954D01*
Y145838D01*
X77260Y144780D01*
X81492D01*
X82550Y145838D01*
Y147954D01*
X81492Y149012D01*
X77260Y151128D02*
X76202Y152186D01*
Y154302D01*
X77260Y155360D01*
X78318D01*
X79376Y154302D01*
X80434Y155360D01*
X81492D01*
X82550Y154302D01*
Y152186D01*
X81492Y151128D01*
X80434D01*
X79376Y152186D01*
X78318Y151128D01*
X77260D01*
X79376Y152186D02*
Y154302D01*
X77260Y126152D02*
X76202Y125094D01*
Y122978D01*
X77260Y121920D01*
X81492D01*
X82550Y122978D01*
Y125094D01*
X81492Y126152D01*
X76202Y128268D02*
Y132500D01*
X77260D01*
X81492Y128268D01*
X82550D01*
X13970Y165100D02*
X7622D01*
X9738Y167216D01*
X7622Y169332D01*
X13970D01*
X7622Y171448D02*
X12912D01*
X13970Y172506D01*
Y174622D01*
X12912Y175680D01*
X7622D01*
Y177796D02*
X13970Y182028D01*
X7622D02*
X13970Y177796D01*
X8680Y184144D02*
X7622Y185202D01*
Y187318D01*
X8680Y188376D01*
X12912D01*
X13970Y187318D01*
Y185202D01*
X12912Y184144D01*
X8680D01*
X74932Y217170D02*
X79164D01*
X81280Y219286D01*
X79164Y221402D01*
X74932D01*
Y223518D02*
X81280D01*
Y226692D01*
X80222Y227750D01*
X75990D01*
X74932Y226692D01*
Y223518D01*
Y229866D02*
X81280D01*
Y233040D01*
X80222Y234098D01*
X75990D01*
X74932Y233040D01*
Y229866D01*
X48260Y296922D02*
Y292689D01*
X50376Y290574D01*
X52492Y292689D01*
Y296922D01*
X54608D02*
Y290574D01*
X57782D01*
X58840Y291632D01*
Y295863D01*
X57782Y296922D01*
X54608D01*
X60956D02*
Y290574D01*
X64130D01*
X65188Y291632D01*
Y295863D01*
X64130Y296922D01*
X60956D01*
X52492Y283208D02*
X48260D01*
Y276860D01*
X52492D01*
X48260Y280034D02*
X50376D01*
X58840Y282150D02*
X57782Y283208D01*
X55666D01*
X54608Y282150D01*
Y281092D01*
X55666Y280034D01*
X57782D01*
X58840Y278976D01*
Y277918D01*
X57782Y276860D01*
X55666D01*
X54608Y277918D01*
X60956Y283208D02*
Y276860D01*
X64130D01*
X65188Y277918D01*
Y282150D01*
X64130Y283208D01*
X60956D01*
X9066Y73367D02*
X8008Y72309D01*
Y70193D01*
X9066Y69135D01*
X13298D01*
X14356Y70193D01*
Y72309D01*
X13298Y73367D01*
X14356Y79715D02*
Y75483D01*
X10124Y79715D01*
X9066D01*
X8008Y78657D01*
Y76541D01*
X9066Y75483D01*
X8680Y202352D02*
X7622Y201294D01*
Y199178D01*
X8680Y198120D01*
X12912D01*
X13970Y199178D01*
Y201294D01*
X12912Y202352D01*
X7622Y204468D02*
X13970D01*
Y208700D01*
X7622Y210816D02*
X13970D01*
X11854D01*
X7622Y215048D01*
X10796Y211874D01*
X13970Y215048D01*
X295910Y30477D02*
X298449D01*
X297180D01*
Y38095D01*
X295910Y36825D01*
X302258D02*
X303528Y38095D01*
X306067D01*
X307336Y36825D01*
Y31747D01*
X306067Y30477D01*
X303528D01*
X302258Y31747D01*
Y36825D01*
X309876Y30477D02*
X314954Y35555D01*
X317493Y31747D02*
X318763Y30477D01*
X321302D01*
X322571Y31747D01*
Y36825D01*
X321302Y38095D01*
X318763D01*
X317493Y36825D01*
Y35555D01*
X318763Y34286D01*
X322571D01*
X325111Y30477D02*
X330189Y35555D01*
X337806Y30477D02*
X332728D01*
X337806Y35555D01*
Y36825D01*
X336537Y38095D01*
X333998D01*
X332728Y36825D01*
X340346D02*
X341615Y38095D01*
X344154D01*
X345424Y36825D01*
Y31747D01*
X344154Y30477D01*
X341615D01*
X340346Y31747D01*
Y36825D01*
X353041Y30477D02*
X347963D01*
X353041Y35555D01*
Y36825D01*
X351772Y38095D01*
X349233D01*
X347963Y36825D01*
X359389Y30477D02*
Y38095D01*
X355581Y34286D01*
X360659D01*
X295910Y15240D02*
Y22857D01*
X300988Y15240D01*
Y22857D01*
X304797Y15240D02*
X307336D01*
X308606Y16510D01*
Y19049D01*
X307336Y20318D01*
X304797D01*
X303528Y19049D01*
Y16510D01*
X304797Y15240D01*
X311145D02*
Y16510D01*
X312415D01*
Y15240D01*
X311145D01*
X317493D02*
X320032D01*
X318763D01*
Y22857D01*
X317493Y21588D01*
X340360Y180338D02*
X342899D01*
X341630D01*
Y172720D01*
X340360D01*
X342899D01*
X346708D02*
Y180338D01*
X351786Y172720D01*
Y180338D01*
X354325Y172720D02*
Y180338D01*
X358134D01*
X359404Y179068D01*
Y176529D01*
X358134Y175259D01*
X354325D01*
X340360Y226052D02*
Y220973D01*
X342899Y218434D01*
X345438Y220973D01*
Y226052D01*
X347977D02*
Y218434D01*
X351786D01*
X353056Y219704D01*
Y224782D01*
X351786Y226052D01*
X347977D01*
X355595D02*
Y218434D01*
X359404D01*
X360673Y219704D01*
Y224782D01*
X359404Y226052D01*
X355595D01*
X340360Y203197D02*
Y208275D01*
X342899Y210815D01*
X345438Y208275D01*
Y203197D01*
Y207006D01*
X340360D01*
X347977Y203197D02*
Y210815D01*
X353056Y203197D01*
Y210815D01*
X355595Y203197D02*
Y208275D01*
X358134Y210815D01*
X360673Y208275D01*
Y203197D01*
Y207006D01*
X355595D01*
X345438Y195578D02*
X340360D01*
Y187960D01*
X345438D01*
X340360Y191769D02*
X342899D01*
X353056Y194308D02*
X351786Y195578D01*
X349247D01*
X347977Y194308D01*
Y193038D01*
X349247Y191769D01*
X351786D01*
X353056Y190499D01*
Y189230D01*
X351786Y187960D01*
X349247D01*
X347977Y189230D01*
X355595Y195578D02*
Y187960D01*
X359404D01*
X360673Y189230D01*
Y194308D01*
X359404Y195578D01*
X355595D01*
X9950Y48682D02*
X8892Y47624D01*
Y45508D01*
X9950Y44450D01*
X14182D01*
X15240Y45508D01*
Y47624D01*
X14182Y48682D01*
X9950Y50798D02*
X8892Y51856D01*
Y53972D01*
X9950Y55030D01*
X11008D01*
X12066Y53972D01*
Y52914D01*
Y53972D01*
X13124Y55030D01*
X14182D01*
X15240Y53972D01*
Y51856D01*
X14182Y50798D01*
X8680Y123612D02*
X7622Y122554D01*
Y120438D01*
X8680Y119380D01*
X12912D01*
X13970Y120438D01*
Y122554D01*
X12912Y123612D01*
X8680Y125728D02*
X7622Y126786D01*
Y128902D01*
X8680Y129960D01*
X12912D01*
X13970Y128902D01*
Y126786D01*
X12912Y125728D01*
X8680D01*
X125732Y168401D02*
Y162053D01*
X127001Y160783D01*
X129540D01*
X130810Y162053D01*
Y168401D01*
X133349Y160783D02*
X135888D01*
X134619D01*
Y168401D01*
X133349Y167131D01*
X368299Y280670D02*
X369569Y281939D01*
Y284478D01*
X368299Y285748D01*
X363221D01*
X361951Y284478D01*
Y281939D01*
X363221Y280670D01*
X369569Y273052D02*
X368299Y275591D01*
X365760Y278130D01*
X363221D01*
X361951Y276861D01*
Y274322D01*
X363221Y273052D01*
X364490D01*
X365760Y274322D01*
Y278130D01*
X365759Y242570D02*
X367029Y243839D01*
Y246378D01*
X365759Y247648D01*
X360681D01*
X359411Y246378D01*
Y243839D01*
X360681Y242570D01*
X367029Y234952D02*
Y240030D01*
X363220D01*
X364490Y237491D01*
Y236222D01*
X363220Y234952D01*
X360681D01*
X359411Y236222D01*
Y238761D01*
X360681Y240030D01*
X232622Y317076D02*
X231564Y318134D01*
X229448D01*
X228390Y317076D01*
Y312844D01*
X229448Y311786D01*
X231564D01*
X232622Y312844D01*
X237912Y311786D02*
Y318134D01*
X234738Y314960D01*
X238970D01*
X195792Y315806D02*
X194734Y316864D01*
X192618D01*
X191560Y315806D01*
Y311574D01*
X192618Y310516D01*
X194734D01*
X195792Y311574D01*
X197908Y315806D02*
X198966Y316864D01*
X201082D01*
X202140Y315806D01*
Y314748D01*
X201082Y313690D01*
X200024D01*
X201082D01*
X202140Y312632D01*
Y311574D01*
X201082Y310516D01*
X198966D01*
X197908Y311574D01*
X158750Y317499D02*
X157481Y318769D01*
X154942D01*
X153672Y317499D01*
Y312421D01*
X154942Y311151D01*
X157481D01*
X158750Y312421D01*
X166368Y311151D02*
X161290D01*
X166368Y316230D01*
Y317499D01*
X165098Y318769D01*
X162559D01*
X161290Y317499D01*
X110490Y307339D02*
X109220Y308609D01*
X106681D01*
X105412Y307339D01*
Y302261D01*
X106681Y300991D01*
X109220D01*
X110490Y302261D01*
X113029Y300991D02*
X115568D01*
X114299D01*
Y308609D01*
X113029Y307339D01*
M02*
