G04*
G04 #@! TF.GenerationSoftware,Altium Limited,Altium Designer,22.7.1 (60)*
G04*
G04 Layer_Physical_Order=2*
G04 Layer_Color=16711680*
%FSLAX44Y44*%
%MOMM*%
G71*
G04*
G04 #@! TF.SameCoordinates,A4F2FA5D-D4EF-4288-9AD8-153C25E8CDF2*
G04*
G04*
G04 #@! TF.FilePolarity,Positive*
G04*
G01*
G75*
%ADD26C,1.5500*%
%ADD27R,1.5500X1.5500*%
%ADD31C,0.5080*%
%ADD34C,1.6500*%
G04:AMPARAMS|DCode=35|XSize=1.65mm|YSize=1.65mm|CornerRadius=0.4125mm|HoleSize=0mm|Usage=FLASHONLY|Rotation=270.000|XOffset=0mm|YOffset=0mm|HoleType=Round|Shape=RoundedRectangle|*
%AMROUNDEDRECTD35*
21,1,1.6500,0.8250,0,0,270.0*
21,1,0.8250,1.6500,0,0,270.0*
1,1,0.8250,-0.4125,-0.4125*
1,1,0.8250,-0.4125,0.4125*
1,1,0.8250,0.4125,0.4125*
1,1,0.8250,0.4125,-0.4125*
%
%ADD35ROUNDEDRECTD35*%
%ADD36C,0.6350*%
%ADD37R,2.9464X3.7084*%
G36*
X375303Y5698D02*
X5698D01*
Y324502D01*
X375303D01*
Y5698D01*
D02*
G37*
%LPC*%
G36*
X31900Y264790D02*
X31750D01*
Y255270D01*
X41270D01*
Y255420D01*
X40535Y258165D01*
X39114Y260625D01*
X37105Y262634D01*
X34645Y264055D01*
X31900Y264790D01*
D02*
G37*
G36*
X29210D02*
X29060D01*
X26315Y264055D01*
X23855Y262634D01*
X21846Y260625D01*
X20425Y258165D01*
X19690Y255420D01*
Y255270D01*
X29210D01*
Y264790D01*
D02*
G37*
G36*
X41270Y252730D02*
X31750D01*
Y243210D01*
X31900D01*
X34645Y243945D01*
X37105Y245366D01*
X39114Y247375D01*
X40535Y249835D01*
X41270Y252579D01*
Y252730D01*
D02*
G37*
G36*
X29210D02*
X19690D01*
Y252579D01*
X20425Y249835D01*
X21846Y247375D01*
X23855Y245366D01*
X26315Y243945D01*
X29060Y243210D01*
X29210D01*
Y252730D01*
D02*
G37*
G36*
X60005Y264848D02*
X51755D01*
X50015Y264618D01*
X48394Y263947D01*
X47002Y262878D01*
X45933Y261486D01*
X45262Y259865D01*
X45033Y258125D01*
Y249875D01*
X45262Y248135D01*
X45933Y246514D01*
X47002Y245121D01*
X48394Y244053D01*
X50015Y243382D01*
X51755Y243153D01*
X60005D01*
X61745Y243382D01*
X63366Y244053D01*
X64759Y245121D01*
X65827Y246514D01*
X66498Y248135D01*
X66727Y249875D01*
Y258125D01*
X66498Y259865D01*
X65827Y261486D01*
X64759Y262878D01*
X63366Y263947D01*
X61745Y264618D01*
X60005Y264848D01*
D02*
G37*
G36*
X31900Y239390D02*
X31750D01*
Y229870D01*
X41270D01*
Y230021D01*
X40535Y232765D01*
X39114Y235225D01*
X37105Y237234D01*
X34645Y238655D01*
X31900Y239390D01*
D02*
G37*
G36*
X29210D02*
X29060D01*
X26315Y238655D01*
X23855Y237234D01*
X21846Y235225D01*
X20425Y232765D01*
X19690Y230021D01*
Y229870D01*
X29210D01*
Y239390D01*
D02*
G37*
G36*
X57301D02*
X54460D01*
X51715Y238655D01*
X49255Y237234D01*
X47246Y235225D01*
X45825Y232765D01*
X45090Y230021D01*
Y227180D01*
X45825Y224435D01*
X47246Y221975D01*
X49255Y219966D01*
X51715Y218545D01*
X54460Y217810D01*
X57301D01*
X60045Y218545D01*
X62505Y219966D01*
X64514Y221975D01*
X65935Y224435D01*
X66670Y227180D01*
Y230021D01*
X65935Y232765D01*
X64514Y235225D01*
X62505Y237234D01*
X60045Y238655D01*
X57301Y239390D01*
D02*
G37*
G36*
X41270Y227330D02*
X31750D01*
Y217810D01*
X31900D01*
X34645Y218545D01*
X37105Y219966D01*
X39114Y221975D01*
X40535Y224435D01*
X41270Y227180D01*
Y227330D01*
D02*
G37*
G36*
X29210D02*
X19690D01*
Y227180D01*
X20425Y224435D01*
X21846Y221975D01*
X23855Y219966D01*
X26315Y218545D01*
X29060Y217810D01*
X29210D01*
Y227330D01*
D02*
G37*
G36*
X321395Y214760D02*
X318685D01*
X316068Y214059D01*
X313722Y212704D01*
X311806Y210788D01*
X310451Y208442D01*
X309750Y205825D01*
Y203115D01*
X310451Y200498D01*
X311806Y198152D01*
X313722Y196236D01*
X316068Y194881D01*
X318685Y194180D01*
X321395D01*
X324012Y194881D01*
X326358Y196236D01*
X328274Y198152D01*
X329629Y200498D01*
X330330Y203115D01*
Y205825D01*
X329629Y208442D01*
X328274Y210788D01*
X326358Y212704D01*
X324012Y214059D01*
X321395Y214760D01*
D02*
G37*
G36*
X57301Y213990D02*
X54460D01*
X51715Y213255D01*
X49255Y211834D01*
X47246Y209825D01*
X45825Y207365D01*
X45090Y204620D01*
Y201779D01*
X45825Y199035D01*
X47246Y196575D01*
X49255Y194566D01*
X51715Y193145D01*
X54460Y192410D01*
X57301D01*
X60045Y193145D01*
X62505Y194566D01*
X64514Y196575D01*
X65935Y199035D01*
X66670Y201779D01*
Y204620D01*
X65935Y207365D01*
X64514Y209825D01*
X62505Y211834D01*
X60045Y213255D01*
X57301Y213990D01*
D02*
G37*
G36*
X31900D02*
X29060D01*
X26315Y213255D01*
X23855Y211834D01*
X21846Y209825D01*
X20425Y207365D01*
X19690Y204620D01*
Y201779D01*
X20425Y199035D01*
X21846Y196575D01*
X23855Y194566D01*
X26315Y193145D01*
X29060Y192410D01*
X31900D01*
X34645Y193145D01*
X37105Y194566D01*
X39114Y196575D01*
X40535Y199035D01*
X41270Y201779D01*
Y204620D01*
X40535Y207365D01*
X39114Y209825D01*
X37105Y211834D01*
X34645Y213255D01*
X31900Y213990D01*
D02*
G37*
G36*
X321395Y189360D02*
X318685D01*
X316068Y188659D01*
X313722Y187304D01*
X311806Y185388D01*
X310451Y183042D01*
X309750Y180425D01*
Y177715D01*
X310451Y175098D01*
X311806Y172752D01*
X313722Y170836D01*
X316068Y169481D01*
X318685Y168780D01*
X321395D01*
X324012Y169481D01*
X326358Y170836D01*
X328274Y172752D01*
X329629Y175098D01*
X330330Y177715D01*
Y180425D01*
X329629Y183042D01*
X328274Y185388D01*
X326358Y187304D01*
X324012Y188659D01*
X321395Y189360D01*
D02*
G37*
G36*
X57301Y188590D02*
X54460D01*
X51715Y187855D01*
X49255Y186434D01*
X47246Y184425D01*
X45825Y181965D01*
X45090Y179221D01*
Y176380D01*
X45825Y173635D01*
X47246Y171175D01*
X49255Y169166D01*
X51715Y167745D01*
X54460Y167010D01*
X57301D01*
X60045Y167745D01*
X62505Y169166D01*
X64514Y171175D01*
X65935Y173635D01*
X66670Y176380D01*
Y179221D01*
X65935Y181965D01*
X64514Y184425D01*
X62505Y186434D01*
X60045Y187855D01*
X57301Y188590D01*
D02*
G37*
G36*
X31900D02*
X29060D01*
X26315Y187855D01*
X23855Y186434D01*
X21846Y184425D01*
X20425Y181965D01*
X19690Y179221D01*
Y176380D01*
X20425Y173635D01*
X21846Y171175D01*
X23855Y169166D01*
X26315Y167745D01*
X29060Y167010D01*
X31900D01*
X34645Y167745D01*
X37105Y169166D01*
X39114Y171175D01*
X40535Y173635D01*
X41270Y176380D01*
Y179221D01*
X40535Y181965D01*
X39114Y184425D01*
X37105Y186434D01*
X34645Y187855D01*
X31900Y188590D01*
D02*
G37*
G36*
X321395Y163960D02*
X318685D01*
X316068Y163259D01*
X313722Y161904D01*
X311806Y159988D01*
X310451Y157642D01*
X309750Y155025D01*
Y152315D01*
X310451Y149698D01*
X311806Y147352D01*
X313722Y145436D01*
X316068Y144081D01*
X318685Y143380D01*
X321395D01*
X324012Y144081D01*
X326358Y145436D01*
X328274Y147352D01*
X329629Y149698D01*
X330330Y152315D01*
Y155025D01*
X329629Y157642D01*
X328274Y159988D01*
X326358Y161904D01*
X324012Y163259D01*
X321395Y163960D01*
D02*
G37*
G36*
X57301Y163190D02*
X54460D01*
X51715Y162455D01*
X49255Y161034D01*
X47246Y159025D01*
X45825Y156565D01*
X45090Y153820D01*
Y150979D01*
X45825Y148235D01*
X47246Y145775D01*
X49255Y143766D01*
X51715Y142345D01*
X54460Y141610D01*
X57301D01*
X60045Y142345D01*
X62505Y143766D01*
X64514Y145775D01*
X65935Y148235D01*
X66670Y150979D01*
Y153820D01*
X65935Y156565D01*
X64514Y159025D01*
X62505Y161034D01*
X60045Y162455D01*
X57301Y163190D01*
D02*
G37*
G36*
X31900D02*
X29060D01*
X26315Y162455D01*
X23855Y161034D01*
X21846Y159025D01*
X20425Y156565D01*
X19690Y153820D01*
Y150979D01*
X20425Y148235D01*
X21846Y145775D01*
X23855Y143766D01*
X26315Y142345D01*
X29060Y141610D01*
X31900D01*
X34645Y142345D01*
X37105Y143766D01*
X39114Y145775D01*
X40535Y148235D01*
X41270Y150979D01*
Y153820D01*
X40535Y156565D01*
X39114Y159025D01*
X37105Y161034D01*
X34645Y162455D01*
X31900Y163190D01*
D02*
G37*
G36*
X321395Y138560D02*
X318685D01*
X316068Y137859D01*
X313722Y136504D01*
X311806Y134588D01*
X310451Y132242D01*
X309750Y129625D01*
Y126915D01*
X310451Y124298D01*
X311806Y121952D01*
X313722Y120036D01*
X316068Y118681D01*
X318685Y117980D01*
X321395D01*
X324012Y118681D01*
X326358Y120036D01*
X328274Y121952D01*
X329629Y124298D01*
X330330Y126915D01*
Y129625D01*
X329629Y132242D01*
X328274Y134588D01*
X326358Y136504D01*
X324012Y137859D01*
X321395Y138560D01*
D02*
G37*
G36*
X57301Y137790D02*
X54460D01*
X51715Y137055D01*
X49255Y135634D01*
X47246Y133625D01*
X45825Y131165D01*
X45090Y128420D01*
Y125580D01*
X45825Y122835D01*
X47246Y120375D01*
X49255Y118366D01*
X51715Y116945D01*
X54460Y116210D01*
X57301D01*
X60045Y116945D01*
X62505Y118366D01*
X64514Y120375D01*
X65935Y122835D01*
X66670Y125580D01*
Y128420D01*
X65935Y131165D01*
X64514Y133625D01*
X62505Y135634D01*
X60045Y137055D01*
X57301Y137790D01*
D02*
G37*
G36*
X31900D02*
X29060D01*
X26315Y137055D01*
X23855Y135634D01*
X21846Y133625D01*
X20425Y131165D01*
X19690Y128420D01*
Y125580D01*
X20425Y122835D01*
X21846Y120375D01*
X23855Y118366D01*
X26315Y116945D01*
X29060Y116210D01*
X31900D01*
X34645Y116945D01*
X37105Y118366D01*
X39114Y120375D01*
X40535Y122835D01*
X41270Y125580D01*
Y128420D01*
X40535Y131165D01*
X39114Y133625D01*
X37105Y135634D01*
X34645Y137055D01*
X31900Y137790D01*
D02*
G37*
G36*
X330330Y113160D02*
X321310D01*
Y104140D01*
X330330D01*
Y113160D01*
D02*
G37*
G36*
X318770D02*
X309750D01*
Y104140D01*
X318770D01*
Y113160D01*
D02*
G37*
G36*
X330330Y101600D02*
X321310D01*
Y92580D01*
X330330D01*
Y101600D01*
D02*
G37*
G36*
X318770D02*
X309750D01*
Y92580D01*
X318770D01*
Y101600D01*
D02*
G37*
G36*
X57301Y112390D02*
X54460D01*
X51715Y111655D01*
X49255Y110234D01*
X47246Y108225D01*
X45825Y105765D01*
X45090Y103020D01*
Y100180D01*
X45825Y97435D01*
X47246Y94975D01*
X49255Y92966D01*
X51715Y91545D01*
X54460Y90810D01*
X57301D01*
X60045Y91545D01*
X62505Y92966D01*
X64514Y94975D01*
X65935Y97435D01*
X66670Y100180D01*
Y103020D01*
X65935Y105765D01*
X64514Y108225D01*
X62505Y110234D01*
X60045Y111655D01*
X57301Y112390D01*
D02*
G37*
G36*
X31900D02*
X29060D01*
X26315Y111655D01*
X23855Y110234D01*
X21846Y108225D01*
X20425Y105765D01*
X19690Y103020D01*
Y100180D01*
X20425Y97435D01*
X21846Y94975D01*
X23855Y92966D01*
X26315Y91545D01*
X29060Y90810D01*
X31900D01*
X34645Y91545D01*
X37105Y92966D01*
X39114Y94975D01*
X40535Y97435D01*
X41270Y100180D01*
Y103020D01*
X40535Y105765D01*
X39114Y108225D01*
X37105Y110234D01*
X34645Y111655D01*
X31900Y112390D01*
D02*
G37*
G36*
X57301Y86990D02*
X54460D01*
X51715Y86255D01*
X49255Y84834D01*
X47246Y82825D01*
X45825Y80365D01*
X45090Y77621D01*
Y74780D01*
X45825Y72035D01*
X47246Y69575D01*
X49255Y67566D01*
X51715Y66145D01*
X54460Y65410D01*
X57301D01*
X60045Y66145D01*
X62505Y67566D01*
X64514Y69575D01*
X65935Y72035D01*
X66670Y74780D01*
Y77621D01*
X65935Y80365D01*
X64514Y82825D01*
X62505Y84834D01*
X60045Y86255D01*
X57301Y86990D01*
D02*
G37*
G36*
X31900D02*
X29060D01*
X26315Y86255D01*
X23855Y84834D01*
X21846Y82825D01*
X20425Y80365D01*
X19690Y77621D01*
Y74780D01*
X20425Y72035D01*
X21846Y69575D01*
X23855Y67566D01*
X26315Y66145D01*
X29060Y65410D01*
X31900D01*
X34645Y66145D01*
X37105Y67566D01*
X39114Y69575D01*
X40535Y72035D01*
X41270Y74780D01*
Y77621D01*
X40535Y80365D01*
X39114Y82825D01*
X37105Y84834D01*
X34645Y86255D01*
X31900Y86990D01*
D02*
G37*
G36*
X57301Y61590D02*
X54460D01*
X51715Y60855D01*
X49255Y59434D01*
X47246Y57425D01*
X45825Y54965D01*
X45090Y52221D01*
Y49380D01*
X45825Y46635D01*
X47246Y44175D01*
X49255Y42166D01*
X51715Y40745D01*
X54460Y40010D01*
X57301D01*
X60045Y40745D01*
X62505Y42166D01*
X64514Y44175D01*
X65935Y46635D01*
X66670Y49380D01*
Y52221D01*
X65935Y54965D01*
X64514Y57425D01*
X62505Y59434D01*
X60045Y60855D01*
X57301Y61590D01*
D02*
G37*
G36*
X31900D02*
X29060D01*
X26315Y60855D01*
X23855Y59434D01*
X21846Y57425D01*
X20425Y54965D01*
X19690Y52221D01*
Y49380D01*
X20425Y46635D01*
X21846Y44175D01*
X23855Y42166D01*
X26315Y40745D01*
X29060Y40010D01*
X31900D01*
X34645Y40745D01*
X37105Y42166D01*
X39114Y44175D01*
X40535Y46635D01*
X41270Y49380D01*
Y52221D01*
X40535Y54965D01*
X39114Y57425D01*
X37105Y59434D01*
X34645Y60855D01*
X31900Y61590D01*
D02*
G37*
%LPD*%
D26*
X320040Y204470D02*
D03*
Y179070D02*
D03*
Y153670D02*
D03*
Y128270D02*
D03*
D27*
Y102870D02*
D03*
D31*
X209550Y136144D02*
Y177800D01*
X175514D02*
X209550D01*
X175514Y136144D02*
Y177800D01*
Y136144D02*
X209550D01*
D34*
X30480Y101600D02*
D03*
X55880D02*
D03*
X30480Y177800D02*
D03*
X55880D02*
D03*
X30480Y203200D02*
D03*
X55880D02*
D03*
X30480Y254000D02*
D03*
X55880Y228600D02*
D03*
X30480D02*
D03*
X55880Y152400D02*
D03*
X30480D02*
D03*
X55880Y127000D02*
D03*
X30480D02*
D03*
X55880Y76200D02*
D03*
Y50800D02*
D03*
X30480Y76200D02*
D03*
Y50800D02*
D03*
D35*
X55880Y254000D02*
D03*
D36*
X209550Y177800D02*
D03*
X175514D02*
D03*
Y136144D02*
D03*
X209550D02*
D03*
X179070Y288290D02*
D03*
X128270Y303530D02*
D03*
X233680Y306070D02*
D03*
X160020Y304800D02*
D03*
X351790Y241300D02*
D03*
X354330Y279400D02*
D03*
D37*
X192532Y156972D02*
D03*
M02*
