G04*
G04 #@! TF.GenerationSoftware,Altium Limited,Altium Designer,22.7.1 (60)*
G04*
G04 Layer_Color=8388736*
%FSLAX44Y44*%
%MOMM*%
G71*
G04*
G04 #@! TF.SameCoordinates,A4F2FA5D-D4EF-4288-9AD8-153C25E8CDF2*
G04*
G04*
G04 #@! TF.FilePolarity,Negative*
G04*
G01*
G75*
%ADD18R,1.1046X1.3562*%
%ADD20R,1.3562X1.1046*%
G04:AMPARAMS|DCode=21|XSize=0.4572mm|YSize=0.3556mm|CornerRadius=0.1397mm|HoleSize=0mm|Usage=FLASHONLY|Rotation=0.000|XOffset=0mm|YOffset=0mm|HoleType=Round|Shape=RoundedRectangle|*
%AMROUNDEDRECTD21*
21,1,0.4572,0.0762,0,0,0.0*
21,1,0.1778,0.3556,0,0,0.0*
1,1,0.2794,0.0889,-0.0381*
1,1,0.2794,-0.0889,-0.0381*
1,1,0.2794,-0.0889,0.0381*
1,1,0.2794,0.0889,0.0381*
%
%ADD21ROUNDEDRECTD21*%
G04:AMPARAMS|DCode=22|XSize=0.7112mm|YSize=0.3556mm|CornerRadius=0.1397mm|HoleSize=0mm|Usage=FLASHONLY|Rotation=0.000|XOffset=0mm|YOffset=0mm|HoleType=Round|Shape=RoundedRectangle|*
%AMROUNDEDRECTD22*
21,1,0.7112,0.0762,0,0,0.0*
21,1,0.4318,0.3556,0,0,0.0*
1,1,0.2794,0.2159,-0.0381*
1,1,0.2794,-0.2159,-0.0381*
1,1,0.2794,-0.2159,0.0381*
1,1,0.2794,0.2159,0.0381*
%
%ADD22ROUNDEDRECTD22*%
G04:AMPARAMS|DCode=23|XSize=0.7112mm|YSize=0.3556mm|CornerRadius=0.1397mm|HoleSize=0mm|Usage=FLASHONLY|Rotation=270.000|XOffset=0mm|YOffset=0mm|HoleType=Round|Shape=RoundedRectangle|*
%AMROUNDEDRECTD23*
21,1,0.7112,0.0762,0,0,270.0*
21,1,0.4318,0.3556,0,0,270.0*
1,1,0.2794,-0.0381,-0.2159*
1,1,0.2794,-0.0381,0.2159*
1,1,0.2794,0.0381,0.2159*
1,1,0.2794,0.0381,-0.2159*
%
%ADD23ROUNDEDRECTD23*%
%ADD24R,1.5032X1.6532*%
%ADD25R,1.6532X1.5032*%
%ADD26C,1.5500*%
%ADD27R,1.5500X1.5500*%
%ADD28C,1.8532*%
G04:AMPARAMS|DCode=29|XSize=1.8532mm|YSize=1.8532mm|CornerRadius=0.5141mm|HoleSize=0mm|Usage=FLASHONLY|Rotation=270.000|XOffset=0mm|YOffset=0mm|HoleType=Round|Shape=RoundedRectangle|*
%AMROUNDEDRECTD29*
21,1,1.8532,0.8250,0,0,270.0*
21,1,0.8250,1.8532,0,0,270.0*
1,1,1.0282,-0.4125,-0.4125*
1,1,1.0282,-0.4125,0.4125*
1,1,1.0282,0.4125,0.4125*
1,1,1.0282,0.4125,-0.4125*
%
%ADD29ROUNDEDRECTD29*%
%ADD30C,0.8382*%
G36*
X297688Y255778D02*
Y55626D01*
X87376D01*
Y255778D01*
X98552D01*
Y264414D01*
X297688D01*
Y255778D01*
D02*
G37*
D18*
X337258Y241300D02*
D03*
X323142D02*
D03*
D20*
X121920Y288998D02*
D03*
Y274882D02*
D03*
X198120Y288998D02*
D03*
Y274882D02*
D03*
D21*
X209550Y168148D02*
D03*
Y154178D02*
D03*
Y146812D02*
D03*
X203200Y177800D02*
D03*
X200152D02*
D03*
X197104D02*
D03*
X192786Y136144D02*
D03*
X194056Y177800D02*
D03*
X209550Y143002D02*
D03*
D22*
X166370Y132588D02*
D03*
Y135636D02*
D03*
Y138684D02*
D03*
Y141732D02*
D03*
Y144780D02*
D03*
Y147828D02*
D03*
Y150876D02*
D03*
Y153924D02*
D03*
Y156972D02*
D03*
Y160020D02*
D03*
Y163068D02*
D03*
X218694Y172212D02*
D03*
X232156Y149860D02*
D03*
Y165100D02*
D03*
Y162052D02*
D03*
X218694Y155956D02*
D03*
X166370Y186690D02*
D03*
Y169164D02*
D03*
Y176022D02*
D03*
Y181102D02*
D03*
Y166116D02*
D03*
D03*
D23*
X185166Y185674D02*
D03*
D24*
X322200Y279400D02*
D03*
X338200D02*
D03*
D25*
X233680Y274875D02*
D03*
Y290875D02*
D03*
X160020Y273940D02*
D03*
Y289940D02*
D03*
D26*
X320040Y204470D02*
D03*
Y179070D02*
D03*
Y153670D02*
D03*
Y128270D02*
D03*
D27*
Y102870D02*
D03*
D28*
X30480Y101600D02*
D03*
X55880D02*
D03*
X30480Y177800D02*
D03*
X55880D02*
D03*
X30480Y203200D02*
D03*
X55880D02*
D03*
X30480Y254000D02*
D03*
X55880Y228600D02*
D03*
X30480D02*
D03*
X55880Y152400D02*
D03*
X30480D02*
D03*
X55880Y127000D02*
D03*
X30480D02*
D03*
X55880Y76200D02*
D03*
Y50800D02*
D03*
X30480Y76200D02*
D03*
Y50800D02*
D03*
D29*
X55880Y254000D02*
D03*
D30*
X209550Y177800D02*
D03*
X175514D02*
D03*
Y136144D02*
D03*
X209550D02*
D03*
X179070Y288290D02*
D03*
X128270Y303530D02*
D03*
X233680Y306070D02*
D03*
X160020Y304800D02*
D03*
X351790Y241300D02*
D03*
X354330Y279400D02*
D03*
M02*
