G04*
G04 #@! TF.GenerationSoftware,Altium Limited,Altium Designer,22.7.1 (60)*
G04*
G04 Layer_Physical_Order=1*
G04 Layer_Color=255*
%FSLAX44Y44*%
%MOMM*%
G71*
G04*
G04 #@! TF.SameCoordinates,A4F2FA5D-D4EF-4288-9AD8-153C25E8CDF2*
G04*
G04*
G04 #@! TF.FilePolarity,Positive*
G04*
G01*
G75*
%ADD13C,0.2540*%
G04:AMPARAMS|DCode=14|XSize=0.254mm|YSize=0.1524mm|CornerRadius=0.0381mm|HoleSize=0mm|Usage=FLASHONLY|Rotation=0.000|XOffset=0mm|YOffset=0mm|HoleType=Round|Shape=RoundedRectangle|*
%AMROUNDEDRECTD14*
21,1,0.2540,0.0762,0,0,0.0*
21,1,0.1778,0.1524,0,0,0.0*
1,1,0.0762,0.0889,-0.0381*
1,1,0.0762,-0.0889,-0.0381*
1,1,0.0762,-0.0889,0.0381*
1,1,0.0762,0.0889,0.0381*
%
%ADD14ROUNDEDRECTD14*%
G04:AMPARAMS|DCode=15|XSize=0.508mm|YSize=0.1524mm|CornerRadius=0.0381mm|HoleSize=0mm|Usage=FLASHONLY|Rotation=0.000|XOffset=0mm|YOffset=0mm|HoleType=Round|Shape=RoundedRectangle|*
%AMROUNDEDRECTD15*
21,1,0.5080,0.0762,0,0,0.0*
21,1,0.4318,0.1524,0,0,0.0*
1,1,0.0762,0.2159,-0.0381*
1,1,0.0762,-0.2159,-0.0381*
1,1,0.0762,-0.2159,0.0381*
1,1,0.0762,0.2159,0.0381*
%
%ADD15ROUNDEDRECTD15*%
G04:AMPARAMS|DCode=16|XSize=0.508mm|YSize=0.1524mm|CornerRadius=0.0381mm|HoleSize=0mm|Usage=FLASHONLY|Rotation=270.000|XOffset=0mm|YOffset=0mm|HoleType=Round|Shape=RoundedRectangle|*
%AMROUNDEDRECTD16*
21,1,0.5080,0.0762,0,0,270.0*
21,1,0.4318,0.1524,0,0,270.0*
1,1,0.0762,-0.0381,-0.2159*
1,1,0.0762,-0.0381,0.2159*
1,1,0.0762,0.0381,0.2159*
1,1,0.0762,0.0381,-0.2159*
%
%ADD16ROUNDEDRECTD16*%
%ADD17R,1.3000X1.4500*%
%ADD18R,1.1046X1.3562*%
%ADD19R,1.4500X1.3000*%
%ADD20R,1.3562X1.1046*%
%ADD26C,1.5500*%
%ADD27R,1.5500X1.5500*%
%ADD31C,0.5080*%
%ADD32C,0.1524*%
%ADD33R,1.2700X2.0320*%
%ADD34C,1.6500*%
G04:AMPARAMS|DCode=35|XSize=1.65mm|YSize=1.65mm|CornerRadius=0.4125mm|HoleSize=0mm|Usage=FLASHONLY|Rotation=270.000|XOffset=0mm|YOffset=0mm|HoleType=Round|Shape=RoundedRectangle|*
%AMROUNDEDRECTD35*
21,1,1.6500,0.8250,0,0,270.0*
21,1,0.8250,1.6500,0,0,270.0*
1,1,0.8250,-0.4125,-0.4125*
1,1,0.8250,-0.4125,0.4125*
1,1,0.8250,0.4125,0.4125*
1,1,0.8250,0.4125,-0.4125*
%
%ADD35ROUNDEDRECTD35*%
%ADD36C,0.6350*%
D13*
X156210Y176022D02*
X165100D01*
X155194Y177038D02*
X156210Y176022D01*
X185166Y185674D02*
Y191516D01*
X218694Y172212D02*
X225552D01*
D14*
X209550Y168148D02*
D03*
Y154178D02*
D03*
Y146812D02*
D03*
X203200Y177800D02*
D03*
X200152D02*
D03*
X197104D02*
D03*
X192786Y136144D02*
D03*
X194056Y177800D02*
D03*
X209550Y143002D02*
D03*
D15*
X166370Y132588D02*
D03*
Y135636D02*
D03*
Y138684D02*
D03*
Y141732D02*
D03*
Y144780D02*
D03*
Y147828D02*
D03*
Y150876D02*
D03*
Y153924D02*
D03*
Y156972D02*
D03*
Y160020D02*
D03*
Y163068D02*
D03*
X218694Y172212D02*
D03*
X232156Y149860D02*
D03*
Y165100D02*
D03*
Y162052D02*
D03*
X218694Y155956D02*
D03*
X166370Y186690D02*
D03*
Y169164D02*
D03*
Y176022D02*
D03*
Y181102D02*
D03*
Y166116D02*
D03*
D03*
D16*
X185166Y185674D02*
D03*
D17*
X322200Y279400D02*
D03*
X338200D02*
D03*
D18*
X337258Y241300D02*
D03*
X323142D02*
D03*
D19*
X233680Y274875D02*
D03*
Y290875D02*
D03*
X160020Y273940D02*
D03*
Y289940D02*
D03*
D20*
X121920Y288998D02*
D03*
Y274882D02*
D03*
X198120Y288998D02*
D03*
Y274882D02*
D03*
D26*
X320040Y204470D02*
D03*
Y179070D02*
D03*
Y153670D02*
D03*
Y128270D02*
D03*
D27*
Y102870D02*
D03*
D31*
X209550Y136144D02*
Y177800D01*
X175514D02*
X209550D01*
X175514Y136144D02*
Y177800D01*
Y136144D02*
X209550D01*
X218694Y155956D02*
Y172212D01*
X185166Y191516D02*
Y245110D01*
X198120Y258064D01*
Y274882D01*
X226223Y278835D02*
X229720D01*
X215900Y289158D02*
X226223Y278835D01*
X229720D02*
X233676Y274879D01*
X74380Y228600D02*
X103632D01*
X155194Y177038D01*
X58824Y256944D02*
X67636D01*
X55880Y254000D02*
X58824Y256944D01*
X67636D02*
X123112Y312420D01*
X201930D01*
X74380Y228600D02*
X120662Y274882D01*
X121920D01*
X55880Y228600D02*
X74380D01*
X201930Y312420D02*
X215900Y298450D01*
Y289158D02*
Y298450D01*
X122391Y274411D02*
X159549D01*
X121920Y274882D02*
X122391Y274411D01*
X159549D02*
X160020Y273940D01*
X198124Y274879D02*
X233676D01*
X198120Y274882D02*
X198124Y274879D01*
X257810Y204470D02*
X320040D01*
X225552Y172212D02*
X257810Y204470D01*
X322200Y279400D02*
X322671Y278929D01*
Y241771D02*
X323142Y241300D01*
X322671Y241771D02*
Y278929D01*
X320040Y236940D02*
X323142Y240042D01*
X320040Y204470D02*
Y236940D01*
X323142Y240042D02*
Y241300D01*
D32*
X232156Y162052D02*
X295170D01*
X303552Y153670D01*
X320040D01*
X232156Y149860D02*
X294640D01*
X313556Y130944D01*
X317366D01*
X320040Y128270D01*
X308610Y179070D02*
X320040D01*
X294640Y165100D02*
X308610Y179070D01*
X232156Y165100D02*
X294640D01*
X166370Y230487D02*
X179070Y243187D01*
X166370Y186690D02*
Y230487D01*
X179070Y243187D02*
Y288290D01*
X197412D01*
X198120Y288998D01*
X194056Y205227D02*
X243216Y254387D01*
X194056Y177800D02*
Y205227D01*
X243216Y254387D02*
Y282322D01*
X121920Y288998D02*
Y297180D01*
X128270Y303530D01*
X233680Y291625D02*
Y306070D01*
X160020Y289940D02*
Y304800D01*
X166370Y181102D02*
X168148D01*
X171196Y178054D01*
X168872Y172212D02*
X171196Y174536D01*
Y178054D01*
X130543Y172212D02*
X168872D01*
X45344Y213736D02*
X89019D01*
X30480Y228600D02*
X45344Y213736D01*
X89019D02*
X130543Y172212D01*
X30480Y203200D02*
X95244D01*
X129280Y169164D02*
X166370D01*
X95244Y203200D02*
X129280Y169164D01*
X55880Y177800D02*
X106420D01*
X118104Y166116D02*
X166370D01*
X106420Y177800D02*
X118104Y166116D01*
X41016Y177764D02*
X55712Y163068D01*
X30480Y177800D02*
X30516Y177764D01*
X55712Y163068D02*
X166370D01*
X30516Y177764D02*
X41016D01*
X116072Y160020D02*
X166370D01*
X7752Y119172D02*
X30444Y141864D01*
X7752Y41386D02*
Y119172D01*
X30480Y228600D02*
Y254000D01*
X193294Y136144D02*
X226568Y102870D01*
X192786Y136144D02*
X193294D01*
X226568Y102870D02*
X320040D01*
X117159Y284237D02*
X121920Y288998D01*
X122862Y289940D02*
X160020D01*
X121920Y288998D02*
X122862Y289940D01*
X105932Y284237D02*
X117159D01*
X65160Y243464D02*
X105932Y284237D01*
X49099Y243464D02*
X65160D01*
X41016Y251548D02*
X49099Y243464D01*
X32933Y251548D02*
X41016D01*
X30480Y254000D02*
X32933Y251548D01*
X233680Y291625D02*
X241644Y283661D01*
X241877D02*
X243216Y282322D01*
X241644Y283661D02*
X241877D01*
X164738Y130956D02*
Y132588D01*
X82550Y48768D02*
X164738Y130956D01*
Y132588D02*
X166370D01*
X162306Y135636D02*
X166370D01*
X78740Y52070D02*
X162306Y135636D01*
X78740Y41518D02*
Y52070D01*
X75692Y45481D02*
Y54102D01*
X160274Y138684D01*
X166370D01*
X72390Y46490D02*
Y55880D01*
X158242Y141732D01*
X166370D01*
X58420Y36830D02*
X68580Y46990D01*
Y58420D01*
X154940Y144780D01*
X166370D01*
X66171Y24638D02*
X82550Y41017D01*
Y48768D01*
X64908Y27686D02*
X78740Y41518D01*
X60945Y30734D02*
X75692Y45481D01*
X59682Y33782D02*
X72390Y46490D01*
X30073Y27686D02*
X64908D01*
X13848Y43911D02*
X30073Y27686D01*
X13848Y43911D02*
Y110368D01*
X30480Y127000D01*
X16896Y45173D02*
X31335Y30734D01*
X16896Y45173D02*
Y88016D01*
X30444Y141864D02*
Y152364D01*
X30480Y152400D01*
X19944Y46436D02*
X32598Y33782D01*
X19944Y46436D02*
Y65664D01*
X7752Y41386D02*
X24500Y24638D01*
X66171D01*
X16896Y88016D02*
X30480Y101600D01*
X19944Y65664D02*
X30480Y76200D01*
X59335Y30734D02*
X60945D01*
X44450Y36830D02*
X58420D01*
X58073Y33782D02*
X59682D01*
X31335Y30734D02*
X59335D01*
X32598Y33782D02*
X58073D01*
X30480Y50800D02*
X44450Y36830D01*
X152908Y147828D02*
X166370D01*
X55880Y50800D02*
X152908Y147828D01*
X55880Y76200D02*
X74924D01*
X149600Y150876D01*
X166370D01*
X55880Y101600D02*
X86100D01*
X138424Y153924D01*
X166370D01*
X97276Y127000D02*
X127248Y156972D01*
X166370D01*
X55880Y127000D02*
X97276D01*
X108452Y152400D02*
X116072Y160020D01*
X55880Y152400D02*
X108452D01*
X338200Y279400D02*
X354330D01*
X337258Y241300D02*
X351790D01*
D33*
X192532Y156972D02*
D03*
D34*
X30480Y101600D02*
D03*
X55880D02*
D03*
X30480Y177800D02*
D03*
X55880D02*
D03*
X30480Y203200D02*
D03*
X55880D02*
D03*
X30480Y254000D02*
D03*
X55880Y228600D02*
D03*
X30480D02*
D03*
X55880Y152400D02*
D03*
X30480D02*
D03*
X55880Y127000D02*
D03*
X30480D02*
D03*
X55880Y76200D02*
D03*
Y50800D02*
D03*
X30480Y76200D02*
D03*
Y50800D02*
D03*
D35*
X55880Y254000D02*
D03*
D36*
X209550Y177800D02*
D03*
X175514D02*
D03*
Y136144D02*
D03*
X209550D02*
D03*
X179070Y288290D02*
D03*
X128270Y303530D02*
D03*
X233680Y306070D02*
D03*
X160020Y304800D02*
D03*
X351790Y241300D02*
D03*
X354330Y279400D02*
D03*
M02*
