G04*
G04 #@! TF.GenerationSoftware,Altium Limited,Altium Designer,22.7.1 (60)*
G04*
G04 Layer_Color=16711935*
%FSLAX44Y44*%
%MOMM*%
G71*
G04*
G04 #@! TF.SameCoordinates,34B7A8A0-57E4-4CCA-9FD8-BF788A575D18*
G04*
G04*
G04 #@! TF.FilePolarity,Negative*
G04*
G01*
G75*
%ADD53C,1.7032*%
%ADD54R,1.7532X1.7532*%
%ADD55C,1.7532*%
%ADD56C,2.9464*%
%ADD57C,1.8032*%
G04:AMPARAMS|DCode=58|XSize=1.8032mm|YSize=1.8032mm|CornerRadius=0.5016mm|HoleSize=0mm|Usage=FLASHONLY|Rotation=180.000|XOffset=0mm|YOffset=0mm|HoleType=Round|Shape=RoundedRectangle|*
%AMROUNDEDRECTD58*
21,1,1.8032,0.8000,0,0,180.0*
21,1,0.8000,1.8032,0,0,180.0*
1,1,1.0032,-0.4000,0.4000*
1,1,1.0032,0.4000,0.4000*
1,1,1.0032,0.4000,-0.4000*
1,1,1.0032,-0.4000,-0.4000*
%
%ADD58ROUNDEDRECTD58*%
G04:AMPARAMS|DCode=59|XSize=1.8032mm|YSize=1.8032mm|CornerRadius=0.5016mm|HoleSize=0mm|Usage=FLASHONLY|Rotation=90.000|XOffset=0mm|YOffset=0mm|HoleType=Round|Shape=RoundedRectangle|*
%AMROUNDEDRECTD59*
21,1,1.8032,0.8000,0,0,90.0*
21,1,0.8000,1.8032,0,0,90.0*
1,1,1.0032,0.4000,0.4000*
1,1,1.0032,0.4000,-0.4000*
1,1,1.0032,-0.4000,-0.4000*
1,1,1.0032,-0.4000,0.4000*
%
%ADD59ROUNDEDRECTD59*%
%ADD60R,1.5700X1.5700*%
%ADD61C,1.5700*%
%ADD62R,3.3500X3.3500*%
%ADD63C,2.0000*%
%ADD64R,1.2000X1.2000*%
%ADD65C,1.2000*%
%ADD66R,1.7532X1.7532*%
%ADD67C,0.8382*%
D53*
X29972Y716280D02*
D03*
X405130Y816610D02*
D03*
X773176Y647954D02*
D03*
X1003300Y481330D02*
D03*
X802640Y457200D02*
D03*
X1270000Y621030D02*
D03*
D54*
X441198Y77978D02*
D03*
X569468Y240030D02*
D03*
D55*
X466598Y77978D02*
D03*
X491998D02*
D03*
X517398D02*
D03*
X542798D02*
D03*
X568198D02*
D03*
X544068Y240030D02*
D03*
X518668D02*
D03*
X493268D02*
D03*
X467868D02*
D03*
X442468D02*
D03*
X195580Y576580D02*
D03*
Y551180D02*
D03*
Y525780D02*
D03*
Y500380D02*
D03*
Y474980D02*
D03*
Y449580D02*
D03*
Y424180D02*
D03*
Y398780D02*
D03*
X170180Y601980D02*
D03*
Y576580D02*
D03*
Y551180D02*
D03*
Y525780D02*
D03*
Y500380D02*
D03*
Y474980D02*
D03*
Y449580D02*
D03*
Y424180D02*
D03*
Y398780D02*
D03*
X459740Y552450D02*
D03*
Y527050D02*
D03*
Y501650D02*
D03*
Y476250D02*
D03*
D56*
X59436Y1054100D02*
D03*
X58674Y60452D02*
D03*
X1265174Y1054100D02*
D03*
X1246378Y60452D02*
D03*
D57*
X831850Y775970D02*
D03*
X1217930Y731012D02*
D03*
X521970Y925830D02*
D03*
X101600Y454660D02*
D03*
X934720Y367030D02*
D03*
X933450Y741680D02*
D03*
X184150Y728980D02*
D03*
X863600Y455930D02*
D03*
X520700Y722630D02*
D03*
X393700Y728980D02*
D03*
X990600Y614680D02*
D03*
X27432Y653542D02*
D03*
D58*
X857250Y775970D02*
D03*
X1243330Y731012D02*
D03*
X76200Y454660D02*
D03*
X960120Y367030D02*
D03*
X958850Y741680D02*
D03*
X838200Y455930D02*
D03*
X495300Y722630D02*
D03*
X1016000Y614680D02*
D03*
X52832Y653542D02*
D03*
D59*
X521970Y900430D02*
D03*
X184150Y754380D02*
D03*
X393700D02*
D03*
D60*
X659130Y474980D02*
D03*
X1130300Y678180D02*
D03*
X709930Y601980D02*
D03*
D61*
X684530Y474980D02*
D03*
X709930D02*
D03*
X1079500Y678180D02*
D03*
X1104900D02*
D03*
X659130Y601980D02*
D03*
X684530D02*
D03*
D62*
X641350Y1012825D02*
D03*
X793750D02*
D03*
X977900D02*
D03*
X1143000D02*
D03*
X360172D02*
D03*
X201422D02*
D03*
D63*
X590550Y974725D02*
D03*
Y1076325D02*
D03*
X692150Y974725D02*
D03*
Y1076325D02*
D03*
X742950Y974725D02*
D03*
Y1076325D02*
D03*
X844550Y974725D02*
D03*
Y1076325D02*
D03*
X927100Y974725D02*
D03*
Y1076325D02*
D03*
X1028700Y974725D02*
D03*
Y1076325D02*
D03*
X1092200Y974725D02*
D03*
Y1076325D02*
D03*
X1193800Y974725D02*
D03*
Y1076325D02*
D03*
X309372Y974725D02*
D03*
Y1076325D02*
D03*
X410972Y974725D02*
D03*
Y1076325D02*
D03*
X150622Y974725D02*
D03*
Y1076325D02*
D03*
X252222Y974725D02*
D03*
Y1076325D02*
D03*
D64*
X514350Y786130D02*
D03*
X323850D02*
D03*
X123190D02*
D03*
D65*
X488950D02*
D03*
X463550D02*
D03*
X298450D02*
D03*
X273050D02*
D03*
X97790D02*
D03*
X72390D02*
D03*
D66*
X195580Y601980D02*
D03*
X459740Y450850D02*
D03*
D67*
X822452Y634746D02*
D03*
X814324Y416052D02*
D03*
X800354D02*
D03*
X716534D02*
D03*
X828256D02*
D03*
X730504D02*
D03*
X744474D02*
D03*
X702564D02*
D03*
X758444D02*
D03*
X772414D02*
D03*
X786384D02*
D03*
X675542Y572558D02*
D03*
Y558588D02*
D03*
X664052Y550643D02*
D03*
X650082D02*
D03*
X636112D02*
D03*
X622142D02*
D03*
X608172D02*
D03*
X594208Y550238D02*
D03*
X583538Y541219D02*
D03*
X573660Y531341D02*
D03*
X552093Y513813D02*
D03*
X538123D02*
D03*
X524153D02*
D03*
X510183D02*
D03*
X496213D02*
D03*
X482243D02*
D03*
X482189Y489487D02*
D03*
X496159D02*
D03*
X510129D02*
D03*
X524099D02*
D03*
X538069D02*
D03*
X552039D02*
D03*
X576341Y499621D02*
D03*
X586219Y509499D02*
D03*
X596098Y519378D02*
D03*
X608222Y526317D02*
D03*
X622192D02*
D03*
X636162D02*
D03*
X650132D02*
D03*
X664102D02*
D03*
X675542Y518300D02*
D03*
Y504330D02*
D03*
X693518Y496709D02*
D03*
Y510679D02*
D03*
X691672Y538497D02*
D03*
X693518Y566314D02*
D03*
X885066Y432600D02*
D03*
X967812Y415760D02*
D03*
X1010796Y432600D02*
D03*
X843280Y416560D02*
D03*
X1093542Y415760D02*
D03*
X731591Y435274D02*
D03*
X1164465Y432600D02*
D03*
X870022Y415760D02*
D03*
X1094615Y432600D02*
D03*
X1205302Y415760D02*
D03*
X681878Y452479D02*
D03*
X1065602Y415760D02*
D03*
X981782D02*
D03*
X1192405Y432600D02*
D03*
X1066675D02*
D03*
X1079572Y415760D02*
D03*
X871096Y432600D02*
D03*
X1009722Y415760D02*
D03*
X1135452D02*
D03*
X1080646Y432600D02*
D03*
X1220346D02*
D03*
X759531Y435274D02*
D03*
X1219272Y415760D02*
D03*
X1108586Y432600D02*
D03*
X940946D02*
D03*
X968885D02*
D03*
X829381Y435274D02*
D03*
X1037662Y415760D02*
D03*
X1107512D02*
D03*
X1052706Y432600D02*
D03*
X801441Y435274D02*
D03*
X954915Y432600D02*
D03*
X925902Y415760D02*
D03*
X899035Y432600D02*
D03*
X996825D02*
D03*
X691757Y442601D02*
D03*
X913006Y432600D02*
D03*
X773501Y435274D02*
D03*
X1163392Y415760D02*
D03*
X815411Y435274D02*
D03*
X939872Y415760D02*
D03*
X1024765Y432600D02*
D03*
X843346Y434898D02*
D03*
X688983Y421559D02*
D03*
X911932Y415760D02*
D03*
X1122555Y432600D02*
D03*
X1191332Y415760D02*
D03*
X1206376Y432600D02*
D03*
X1038736D02*
D03*
X1177362Y415760D02*
D03*
X1178436Y432600D02*
D03*
X1136525D02*
D03*
X1051632Y415760D02*
D03*
X857125Y432600D02*
D03*
X703651Y435274D02*
D03*
X787471D02*
D03*
X883992Y415760D02*
D03*
X856052D02*
D03*
X953842D02*
D03*
X745561Y435274D02*
D03*
X679105Y431438D02*
D03*
X897962Y415760D02*
D03*
X1023692D02*
D03*
X717621Y435274D02*
D03*
X982856Y432600D02*
D03*
X926975D02*
D03*
X1121482Y415760D02*
D03*
X995752D02*
D03*
X1150496Y432600D02*
D03*
X1149422Y415760D02*
D03*
X837946Y682244D02*
D03*
X930656Y650748D02*
D03*
X347726Y114808D02*
D03*
X329184Y36576D02*
D03*
X325374Y230632D02*
D03*
X276098Y229870D02*
D03*
X252476Y225044D02*
D03*
X259842Y16510D02*
D03*
X245618Y83820D02*
D03*
X244348Y16764D02*
D03*
X225806Y115570D02*
D03*
X112014Y593852D02*
D03*
X117804Y559696D02*
D03*
X103834D02*
D03*
X89864D02*
D03*
X35934Y509284D02*
D03*
Y495314D02*
D03*
Y481344D02*
D03*
Y467374D02*
D03*
Y453404D02*
D03*
Y439434D02*
D03*
Y425464D02*
D03*
Y411494D02*
D03*
Y397524D02*
D03*
Y383554D02*
D03*
Y369584D02*
D03*
Y355614D02*
D03*
Y341644D02*
D03*
Y327674D02*
D03*
Y313704D02*
D03*
Y299734D02*
D03*
Y285764D02*
D03*
Y271794D02*
D03*
Y257824D02*
D03*
Y243854D02*
D03*
Y229884D02*
D03*
Y215914D02*
D03*
Y201944D02*
D03*
X39133Y188345D02*
D03*
X49011Y178467D02*
D03*
X58889Y168589D02*
D03*
X68767Y158710D02*
D03*
X78646Y148832D02*
D03*
X88524Y138954D02*
D03*
X100316Y131464D02*
D03*
X114286D02*
D03*
X128256D02*
D03*
X142226D02*
D03*
X156196D02*
D03*
X170166D02*
D03*
X184136D02*
D03*
X198106D02*
D03*
X212076D02*
D03*
X226046D02*
D03*
X160343Y148497D02*
D03*
X146373D02*
D03*
X132403D02*
D03*
X118433D02*
D03*
X104463D02*
D03*
X93913Y157654D02*
D03*
X84034Y167532D02*
D03*
X74156Y177410D02*
D03*
X64278Y187288D02*
D03*
X54399Y197167D02*
D03*
X52966Y211063D02*
D03*
Y225033D02*
D03*
Y239003D02*
D03*
Y252973D02*
D03*
Y266943D02*
D03*
Y280913D02*
D03*
Y294883D02*
D03*
Y308853D02*
D03*
Y322823D02*
D03*
Y336793D02*
D03*
Y350763D02*
D03*
Y364733D02*
D03*
Y378703D02*
D03*
Y392673D02*
D03*
Y406643D02*
D03*
Y420613D02*
D03*
Y434583D02*
D03*
Y448553D02*
D03*
Y462523D02*
D03*
Y476493D02*
D03*
Y490463D02*
D03*
Y504433D02*
D03*
X90354Y542664D02*
D03*
X104324D02*
D03*
X118294D02*
D03*
X853440Y614680D02*
D03*
X1191067Y699335D02*
D03*
X1177097D02*
D03*
X1163127D02*
D03*
X1149157D02*
D03*
X1135187D02*
D03*
X1121217D02*
D03*
X1107247D02*
D03*
X1093277D02*
D03*
X1079307D02*
D03*
X1065337D02*
D03*
X1051367D02*
D03*
X1037397D02*
D03*
X1023427D02*
D03*
X1009457D02*
D03*
X995487D02*
D03*
X981517D02*
D03*
X967547D02*
D03*
X953577D02*
D03*
X911667D02*
D03*
X897697D02*
D03*
X883727D02*
D03*
X869757D02*
D03*
X855787D02*
D03*
X841817D02*
D03*
X827847D02*
D03*
X813877D02*
D03*
X799907D02*
D03*
X785937D02*
D03*
X771967D02*
D03*
X757997D02*
D03*
X744027D02*
D03*
X731317Y693538D02*
D03*
X721438Y683660D02*
D03*
X711560Y673781D02*
D03*
X701682Y663903D02*
D03*
X691804Y654025D02*
D03*
X681925Y644146D02*
D03*
X672047Y634268D02*
D03*
X662169Y624390D02*
D03*
X683008Y621414D02*
D03*
X692886Y631292D02*
D03*
X702764Y641170D02*
D03*
X712643Y651049D02*
D03*
X881860Y682495D02*
D03*
X951710D02*
D03*
X965680D02*
D03*
X979650D02*
D03*
X993620D02*
D03*
X1007590D02*
D03*
X1021560D02*
D03*
X1035530D02*
D03*
X1049500D02*
D03*
X1161260D02*
D03*
X1175230D02*
D03*
X1189200D02*
D03*
X1202067Y677055D02*
D03*
X1211945Y667177D02*
D03*
X1221824Y657299D02*
D03*
X1231702Y647421D02*
D03*
X1241580Y637542D02*
D03*
X1251458Y627664D02*
D03*
X1261580Y601631D02*
D03*
Y587661D02*
D03*
X1278420Y584233D02*
D03*
Y598203D02*
D03*
X1261266Y641672D02*
D03*
X1251387Y651550D02*
D03*
X1241509Y661428D02*
D03*
X1231631Y671307D02*
D03*
X1221753Y681185D02*
D03*
X1211874Y691063D02*
D03*
X1200573Y699275D02*
D03*
X1073150Y637540D02*
D03*
X812800Y850900D02*
D03*
X838200D02*
D03*
X970280D02*
D03*
X998220Y891540D02*
D03*
X1066800Y843280D02*
D03*
Y899160D02*
D03*
X1031240Y802640D02*
D03*
X726440Y665480D02*
D03*
X802640Y584200D02*
D03*
X815340Y596900D02*
D03*
X932180Y698500D02*
D03*
Y680720D02*
D03*
X704850Y551180D02*
D03*
X728980Y576580D02*
D03*
X942340Y490220D02*
D03*
X976630Y585470D02*
D03*
X1092200Y488950D02*
D03*
X1099820Y615950D02*
D03*
X659130Y414020D02*
D03*
X730250Y499110D02*
D03*
X920750Y457200D02*
D03*
X880110Y557530D02*
D03*
X704088Y525780D02*
D03*
X952500Y626110D02*
D03*
X1052830Y472440D02*
D03*
X1132840D02*
D03*
X1156970Y558800D02*
D03*
X1154430Y510540D02*
D03*
X1123950Y637540D02*
D03*
X1212850Y560070D02*
D03*
X541020Y854710D02*
D03*
X590550Y855980D02*
D03*
X519430Y814070D02*
D03*
X463550Y895350D02*
D03*
X419100Y852170D02*
D03*
X281940Y722630D02*
D03*
X355600Y815340D02*
D03*
X304800Y892810D02*
D03*
X252730Y852170D02*
D03*
X429260Y701040D02*
D03*
X81280Y721360D02*
D03*
X170180Y829310D02*
D03*
X57150Y852170D02*
D03*
X101600Y894080D02*
D03*
X48260Y967740D02*
D03*
X128270D02*
D03*
M02*
